<svg width="148" height="41" viewBox="0 0 148 41" fill="none" xmlns="http://www.w3.org/2000/svg">
<path d="M38.5699 1.83389C36.8741 1.82809 35.954 1.8621 36.2586 1.92522C37.6543 2.21438 37.6187 1.97848 37.5604 9.67739C37.5048 17.0274 37.5097 16.9777 36.5676 17.1181C36.3077 17.1567 36.6096 17.2097 37.2405 17.2362C37.8716 17.2628 39.3013 17.3423 40.4176 17.4081C43.6899 17.6009 44.1521 17.5925 45.4095 17.3329C49.881 16.41 52.6719 12.0785 51.6923 7.58222C51.2731 5.65857 49.7297 3.61444 48.0903 2.81701C46.4697 2.02862 45.7144 1.93244 40.5058 1.85537C39.784 1.8447 39.1351 1.83581 38.5699 1.83389ZM41.3994 2.30665C43.7471 2.24896 46.4265 3.17205 47.8807 4.61137C50.1361 6.84357 50.7502 10.614 49.3314 13.5348C48.7547 14.7221 47.4308 15.8996 46.1046 16.4035C44.2376 17.113 40.454 17.0027 39.6453 16.2154C39.5052 16.0789 39.4468 14.046 39.4468 9.28528V2.5484L40.4176 2.3926C40.735 2.343 41.0642 2.31488 41.3994 2.30665Z" fill="#614E70"/>
<path d="M96.4297 17.3841C95.3672 17.0156 95.3291 16.9431 95.3291 15.2944C95.3291 14.4564 95.4004 13.7203 95.4877 13.6587C95.5829 13.5915 95.6463 13.8231 95.6468 14.2371C95.648 15.7849 96.7996 16.8309 98.5019 16.8309C99.6236 16.8309 100.224 16.5314 100.784 15.6921C101.281 14.947 101.439 13.8757 101.201 12.8654C101.004 12.0288 100.453 11.3329 97.996 8.81425C96.3705 7.14813 95.8048 6.04818 95.8048 4.55385C95.8048 2.12377 97.1542 0.637688 99.3724 0.625291C101.121 0.615515 102.348 0.853484 102.238 1.18075C102.188 1.33034 102.14 1.99665 102.131 2.66146C102.116 3.81372 102.108 3.83674 101.969 3.1542C101.704 1.8649 100.884 1.24181 99.4517 1.24181C97.8297 1.24181 96.9164 2.16204 96.9152 3.7976C96.9146 4.90063 97.4411 5.77716 98.9759 7.22733C101.549 9.65862 102.183 10.5383 102.472 12.0808C102.866 14.1836 102.04 16.1128 100.354 17.0245C99.5103 17.481 99.194 17.5535 98.1038 17.5402C97.4063 17.5318 96.6529 17.4614 96.4297 17.3841Z" fill="#614E70"/>
<path d="M108.256 17.3091C107.358 16.9809 107.294 16.7775 107.482 14.8652C107.556 14.1163 107.626 13.7433 107.637 14.0363C107.679 15.0554 108.254 16.0821 109.023 16.5084C110.02 17.061 111.664 16.9654 112.37 16.3138C113.02 15.7145 113.368 14.8524 113.368 13.8426C113.368 12.6142 112.987 11.8977 111.564 10.4502C108.647 7.48335 108.104 6.66776 107.911 4.97002C107.789 3.8984 107.972 3.0795 108.545 2.13258C109.358 0.789851 110.852 0.370885 113.407 0.768946L114.319 0.910962L114.308 2.30503C114.3 3.43349 114.267 3.61259 114.137 3.24518C113.543 1.57243 113.014 1.2001 111.353 1.28591C110.342 1.33818 110.156 1.40585 109.726 1.87788C108.791 2.9031 108.767 4.56433 109.669 5.79183C109.898 6.1031 110.779 7.00124 111.627 7.78771C113.94 9.93255 114.636 11.1396 114.636 13.0059C114.636 14.7565 113.96 16.0862 112.611 16.992C111.982 17.4135 111.67 17.4915 110.442 17.5341C109.487 17.5672 108.755 17.4919 108.256 17.3091Z" fill="#614E70"/>
<path d="M27.9389 14.2036C26.2607 12.3647 23.5894 9.32319 22.003 7.44485C20.4165 5.56651 19.055 4.02322 18.9772 4.01534C18.8005 3.99744 19.0081 14.1309 19.2147 15.6014C19.2985 16.1972 19.445 16.7676 19.5404 16.869C19.6357 16.9704 20.0444 17.1105 20.4484 17.1805C20.9019 17.2588 20.2609 17.307 18.7744 17.3063C17.4494 17.3056 16.6365 17.2542 16.9677 17.192C17.9519 17.0072 17.9794 16.765 17.9904 8.16793C17.998 2.14065 18.0453 0.556176 18.2151 0.627262C18.3335 0.676756 21.134 3.8427 24.4385 7.6627C27.7432 11.4827 30.4727 14.581 30.5039 14.5478C30.535 14.5147 30.4966 11.6309 30.4181 8.13929C30.2593 1.05245 30.3223 1.36622 29.0024 1.09113C28.4175 0.969185 28.804 0.931376 30.6465 0.930373C32.194 0.929455 32.8497 0.980736 32.4802 1.07361C32.1637 1.1531 31.8154 1.31334 31.7057 1.42969C31.5626 1.58179 31.4932 3.87491 31.4585 9.58866C31.4213 15.6869 31.3615 17.5374 31.2002 17.5417C31.085 17.5447 29.6173 16.0425 27.9389 14.2036Z" fill="#614E70"/>
<path d="M72.1735 17.3928C70.9648 17.3361 70.2095 17.2741 70.4948 17.2552C71.4827 17.19 71.5045 17.0235 71.5045 9.59813V2.74888L71.0535 2.42006C70.8055 2.2392 70.3325 2.07455 70.0027 2.05415C69.5958 2.02902 78.0272 1.82219 78.9888 1.83372C79.0065 1.8339 78.9596 2.41419 78.8845 3.12319C78.7692 4.21257 78.7255 4.32848 78.6026 3.87133C78.3322 2.86551 77.9206 2.70132 75.4981 2.63212L73.3199 2.56991V8.79647H75.6699C77.2249 8.79647 78.0966 8.72758 78.2462 8.593C78.6188 8.25783 78.6655 8.49005 78.5139 9.92317C78.3834 11.1552 78.355 11.2262 78.2246 10.6468C78.1452 10.2933 77.9241 9.92897 77.7335 9.83714C77.5426 9.7453 76.4646 9.61649 75.338 9.55088L73.2894 9.43174L73.3522 12.6986C73.3994 15.1405 73.4815 16.0369 73.6764 16.2482C74.0986 16.7052 75.2942 16.9018 76.869 16.7735C78.521 16.6387 78.9374 16.4111 79.3542 15.4158L79.642 14.728L79.5401 15.8105C79.3716 17.5978 79.4169 17.5703 76.7046 17.5305C75.4209 17.5116 73.3819 17.4498 72.1735 17.3928Z" fill="#614E70"/>
<path d="M84.2404 17.3928C83.0318 17.3361 82.2764 17.2741 82.5617 17.2552C83.5497 17.19 83.5718 17.0235 83.5718 9.59813V2.74888L83.1207 2.42006C82.8723 2.2392 82.3997 2.07455 82.0697 2.05415C81.663 2.02902 90.094 1.82219 91.0556 1.83372C91.0732 1.8339 91.0264 2.41419 90.9514 3.12319C90.8361 4.21257 90.7923 4.32848 90.6693 3.87133C90.3943 2.84824 89.9913 2.69299 87.612 2.69299H85.4822L85.3779 8.79647H87.5921C88.8135 8.79647 89.9794 8.71312 90.1924 8.61059C90.4046 8.50837 90.614 8.45688 90.6577 8.49619C90.7014 8.53548 90.6776 9.18004 90.605 9.92849C90.4805 11.2131 90.4632 11.2531 90.2982 10.6412C90.2022 10.2846 89.9729 9.92027 89.7884 9.83146C89.604 9.74276 88.5383 9.61686 87.42 9.55185L85.3867 9.43355L85.3975 12.3386C85.4105 15.8625 85.5498 16.3533 86.6243 16.67C87.6096 16.9603 90.2131 16.7782 90.7543 16.3812C90.9625 16.2285 91.2625 15.794 91.421 15.4158L91.709 14.728L91.6068 15.8105C91.4383 17.5978 91.4836 17.5703 88.7715 17.5305C87.4877 17.5116 85.4489 17.4498 84.2404 17.3928Z" fill="#614E70"/>
<path d="M120.456 17.3985C119.238 17.3416 118.469 17.2796 118.747 17.2608C119.779 17.1907 119.777 17.207 119.838 9.79641L119.894 2.93541L119.414 2.50539C119.128 2.25017 118.674 2.05972 118.298 2.03687C117.949 2.01568 119.83 1.95757 122.477 1.90773C125.125 1.85789 127.315 1.82515 127.344 1.835C127.373 1.84483 127.338 2.4128 127.267 3.09715L127.138 4.34142L126.89 3.69907C126.754 3.34578 126.529 2.99314 126.39 2.91542C125.973 2.68283 124.686 2.56708 123.152 2.6242L121.708 2.67797L121.603 8.79002H123.834C125.065 8.79002 126.24 8.70658 126.455 8.6039C126.668 8.50155 126.888 8.45704 126.941 8.50501C126.994 8.55298 126.968 9.1984 126.879 9.93935C126.783 10.7683 126.696 11.07 126.657 10.7236C126.562 9.8874 126.048 9.68452 123.68 9.54761L121.611 9.42799L121.622 12.3372C121.629 14.1143 121.722 15.4808 121.862 15.8485C122.181 16.6796 123.096 16.9401 125.142 16.7806C126.882 16.6449 127.502 16.3045 127.784 15.3298C127.921 14.8615 127.94 14.9892 127.871 15.9119C127.823 16.562 127.684 17.2012 127.562 17.3323C127.326 17.5871 124.963 17.6092 120.456 17.3985Z" fill="#614E70"/>
<path d="M142.877 14.626C141.243 12.8698 138.503 9.79516 136.792 7.79341C135.08 5.79162 133.637 4.1538 133.586 4.1538C133.443 4.1538 133.723 15.3456 133.887 16.1444C134.069 17.0332 134.226 17.1983 135.045 17.3666C135.454 17.4508 134.824 17.4984 133.368 17.4933C132.085 17.4887 131.287 17.4518 131.596 17.411C131.943 17.3654 132.241 17.1835 132.375 16.9361C132.535 16.6363 132.604 14.5243 132.644 8.57994L132.697 0.625L133.141 1.05958C133.385 1.2986 136.149 4.44499 139.285 8.05155C142.42 11.6582 145.037 14.6089 145.097 14.6089C145.38 14.6089 145.01 2.11182 144.714 1.68466C144.606 1.52706 144.167 1.32559 143.738 1.23696C143.13 1.11098 143.47 1.07485 145.294 1.07147C146.931 1.06842 147.473 1.11608 147.108 1.23114C146.146 1.53599 146.16 1.41635 146.141 9.46227C146.131 13.554 146.062 17.1081 145.986 17.3603C145.857 17.7947 145.693 17.6507 142.877 14.626Z" fill="#614E70"/>
<path d="M7.0264 0.625233C6.81857 0.645327 6.42704 1.7906 4.31923 8.18924C3.07406 11.9692 1.91744 15.393 1.75344 15.7995C1.36965 16.7508 0.892173 17.2083 0.109244 17.3758C-0.277908 17.4587 0.380123 17.5129 1.82675 17.5144C3.35134 17.5158 3.97509 17.4658 3.6071 17.37C2.93529 17.1951 2.72868 16.8913 2.85307 16.2613C3.072 15.1526 4.32438 11.1651 4.49203 11.0417C4.73922 10.8597 8.64506 10.8702 8.90624 11.0532C9.01952 11.1326 9.55549 12.4795 10.1001 14.0499C10.8255 16.1416 11.0513 16.9945 10.9379 17.2314C10.7942 17.5315 10.9281 17.5547 12.8387 17.5374C14.4973 17.5225 14.7671 17.4852 14.2316 17.3469C12.8804 16.9979 12.7582 16.7416 9.59221 7.61183C8.29917 3.88315 7.1803 0.764336 7.10496 0.677203C7.07826 0.646318 7.0561 0.622369 7.0264 0.625233ZM6.67034 3.93955C6.80345 3.98847 8.7633 9.82682 8.77535 10.2102C8.77774 10.2864 7.8514 10.3487 6.71224 10.3487H4.63864L5.57596 7.11528C6.09223 5.33657 6.58525 3.90827 6.67034 3.93955Z" fill="#614E70"/>
<path d="M55.9385 1.83419C54.6859 1.84195 54.0763 1.88111 54.3773 1.94403C54.7472 2.02136 55.1414 2.21581 55.2572 2.37788C55.7483 3.06557 55.8099 15.8448 55.3269 16.9261C55.1773 17.261 54.959 17.4209 54.5811 17.4697C54.2873 17.5077 55.2035 17.5403 56.6199 17.5411C58.0362 17.5421 58.8506 17.4948 58.4279 17.4368C57.3167 17.2843 57.2291 17.0079 57.2263 13.6858L57.2207 10.9179H60.1448L60.9547 12.0931C62.4613 14.2659 64.3923 16.6612 64.9732 17.0853C65.4898 17.4624 65.7435 17.5098 67.4358 17.5357C68.7108 17.5551 69.0733 17.5273 68.5516 17.4423C67.0112 17.1912 66.2251 16.4878 63.4174 12.8565L61.5664 10.4621L62.1619 9.76451C64.7243 6.76578 64.5915 3.5258 61.8561 2.23509C61.1588 1.90604 60.7241 1.86966 57.3923 1.83968C56.8421 1.83472 56.356 1.83158 55.9385 1.83419ZM58.7928 2.30649C61.0887 2.31837 62.5114 4.13668 62.3391 7.02957C62.2573 8.40295 61.8435 9.37144 61.1158 9.9019C60.5965 10.2805 59.1439 10.4823 58.3368 10.2863C58.1478 10.2405 57.8196 10.1624 57.6071 10.116C57.2212 10.0317 57.2207 10.0272 57.2207 6.27717V2.52617L57.7574 2.41633C58.1188 2.34231 58.4647 2.30479 58.7928 2.30649Z" fill="#614E70"/>
<path d="M33.1825 23.5838C31.4789 23.6005 29.7993 24.0957 28.5653 25.0766C27.5196 25.9082 26.3455 27.5476 25.915 28.7802C24.2117 33.6599 26.4351 38.9433 30.7564 40.2873C31.9604 40.6617 34.9717 40.52 36.1144 40.0328C38.1669 39.1575 40.003 37.0015 40.6533 34.7006C41.1551 32.9246 41.1516 30.2348 40.6478 28.7181C40.2331 27.4693 39.3515 26.1161 38.4568 25.348C37.0726 24.1598 35.1131 23.565 33.1825 23.5838ZM32.4313 24.2738C32.6701 24.2717 32.9428 24.2761 33.2765 24.2904C34.6465 24.35 34.9874 24.4322 35.7595 24.89C38.4851 26.506 39.8431 30.5193 39.0464 34.5932C38.5837 36.9595 37.62 38.3847 35.864 39.2977C35.0208 39.7358 34.6642 39.814 33.6103 39.801C32.9216 39.7924 32.1704 39.7242 31.9408 39.6482C29.6686 38.8964 27.9176 36.6295 27.3447 33.6997C26.5294 29.5309 27.923 25.7593 30.7043 24.6242C31.3267 24.3703 31.7147 24.28 32.4313 24.2738Z" fill="#614E70"/>
<path d="M67.5731 23.5838C65.7385 23.6005 63.9296 24.0957 62.6007 25.0766C61.4745 25.9082 60.2101 27.5476 59.7469 28.7802C57.9123 33.6599 60.3066 38.9433 64.9606 40.2873C66.257 40.6617 69.5 40.52 70.7307 40.0328C72.9411 39.1575 74.9183 37.0015 75.6187 34.7006C76.1591 32.9246 76.1555 30.2348 75.6129 28.7181C75.1663 27.4693 74.2168 26.1161 73.2533 25.348C71.7627 24.1598 69.6523 23.565 67.5731 23.5838ZM66.7642 24.2738C67.0213 24.2717 67.315 24.2761 67.6744 24.2904C69.1497 24.35 69.5169 24.4322 70.3485 24.89C73.2837 26.506 74.7462 30.5193 73.8883 34.5932C73.3898 36.9595 72.3521 38.3847 70.461 39.2977C69.553 39.7358 69.1689 39.814 68.0338 39.801C67.2921 39.7924 66.4831 39.7242 66.2359 39.6482C63.7889 38.8964 61.9031 36.6295 61.2862 33.6997C60.4081 29.5309 61.9089 25.7593 64.9043 24.6242C65.5746 24.3703 65.9924 24.28 66.7642 24.2738Z" fill="#614E70"/>
<path d="M82.2054 40.2947C82.1616 40.177 81.3774 37.6153 80.4625 34.6021C78.1082 26.8464 77.8045 25.9115 77.5201 25.546C77.3812 25.3675 76.8933 25.1225 76.4361 25.0012C75.666 24.7972 75.8024 24.7821 78.2987 24.795C79.7803 24.803 80.7832 24.8408 80.5275 24.8794C79.7499 24.9966 79.6166 25.3053 79.8462 26.4564C80.0633 27.5429 82.7971 37.2929 82.9183 37.4124C82.9584 37.4518 83.0188 37.4519 83.0529 37.4128C83.0868 37.3736 84.1418 34.6113 85.3969 31.2745C87.559 25.5269 87.8979 24.7406 88.1188 24.9583C88.1699 25.0087 89.1941 27.815 90.3942 31.1946C91.5946 34.5742 92.6098 37.372 92.6502 37.4117C92.6906 37.4516 92.7581 37.4505 92.7999 37.4091C93.034 37.1785 96.1997 26.3584 96.1997 25.789C96.1997 25.2201 96.1347 25.0932 95.8086 25.0247C95.5935 24.9794 95.2612 24.9099 95.0699 24.8701C94.8788 24.8303 95.7782 24.7966 97.0687 24.7953C98.4412 24.7939 99.1922 24.8454 98.8784 24.9194C98.5833 24.989 98.2493 25.1021 98.1364 25.1708C97.6876 25.4439 97.0179 27.171 94.9108 33.4893C93.7019 37.1147 92.6355 40.1963 92.541 40.3376C92.3914 40.5616 92.3395 40.5557 92.1335 40.2909C92.0038 40.1242 91.3442 38.4291 90.6676 36.5246C89.991 34.6197 89.0323 31.9198 88.5373 30.5246C88.0426 29.1293 87.5745 28.0508 87.4974 28.1277C87.42 28.2047 86.3696 30.8821 85.163 34.0776C83.9563 37.2729 82.8931 40.0271 82.8002 40.198C82.6047 40.5576 82.3207 40.6038 82.2054 40.2947Z" fill="#614E70"/>
<path d="M126.707 40.3206C126.645 40.2218 127.329 39.0307 128.228 37.6735C132.909 30.607 136.015 25.8588 136.1 25.6421C136.178 25.4423 135.838 25.4004 134.19 25.4067C133.087 25.4107 131.36 25.4813 130.351 25.5635C128.657 25.7014 128.478 25.751 128.002 26.2202C127.717 26.4995 127.374 27.0343 127.238 27.4086C126.934 28.2489 126.918 27.9688 127.173 26.1801L127.369 24.7916L132.867 24.8501C135.89 24.8823 138.386 24.9306 138.414 24.9577C138.442 24.9844 136.317 28.2626 133.691 32.2423C131.067 36.2221 128.917 39.513 128.917 39.5552C128.917 39.6754 136.045 39.6453 136.671 39.5224C137.404 39.378 138.25 38.5848 138.388 37.9124C138.447 37.6172 138.575 37.3757 138.67 37.3757C138.844 37.3757 138.806 37.7248 138.434 39.5886L138.25 40.5H132.535C128.791 40.5 126.782 40.4382 126.707 40.3206Z" fill="#614E70"/>
<path d="M7.61885 40.3912C8.57441 40.189 8.59491 40.0251 8.59776 32.5531C8.59975 27.3417 8.54722 25.6315 8.37839 25.4087C8.25629 25.2478 7.83675 25.0433 7.44605 24.9543C6.90761 24.8318 7.38032 24.7928 9.39952 24.7931C11.1507 24.7933 11.8534 24.8422 11.4505 24.936C10.4405 25.1707 10.3763 25.3878 10.3763 28.5625V31.4231H19.7884V28.5625C19.7884 26.55 19.7226 25.613 19.5665 25.4029C19.4443 25.2386 18.9848 25.0347 18.5454 24.95C17.9371 24.8327 18.3823 24.7949 20.4099 24.7917C22.2482 24.7891 22.9088 24.8363 22.5413 24.9446C22.2482 25.0307 21.9087 25.2365 21.7866 25.4016C21.4653 25.8353 21.4715 39.212 21.7931 39.8427C21.965 40.18 22.2003 40.3055 22.8115 40.3865C23.2488 40.4445 22.4078 40.4917 20.9427 40.4917C19.4777 40.4917 18.4927 40.4596 18.7542 40.4201C19.6498 40.2849 19.6952 40.0826 19.7564 35.9572L19.8132 32.1247H10.3763V35.6069C10.3763 40.0854 10.409 40.1841 11.9745 40.4276C12.2188 40.4656 11.2197 40.4981 9.75469 40.4999C8.28959 40.5015 7.32846 40.4528 7.61885 40.3912Z" fill="#614E70"/>
<path d="M46.1016 24.7936C44.1821 24.8055 43.1353 24.8644 43.52 24.9411C44.7954 25.1956 44.7394 24.8354 44.7394 32.6071C44.7394 40.1113 44.7225 40.2569 43.8488 40.3936C43.5922 40.4336 44.4891 40.4687 45.8417 40.4701C47.1944 40.4712 48.1104 40.4424 47.8772 40.4043C46.859 40.2389 46.7173 40.1528 46.536 39.6171C46.4327 39.3113 46.3506 37.9055 46.3506 36.462V33.8593L49.319 33.9578L50.1671 35.1662C52.2084 38.0748 53.6522 39.8166 54.3121 40.1638C54.8643 40.4545 55.2895 40.5142 56.6497 40.4975C58.1015 40.4792 58.206 40.4576 57.4873 40.3333C57.0352 40.2551 56.3814 40.0011 56.0347 39.7646C55.3212 39.2774 53.7948 37.5417 51.9163 35.0896L50.6388 33.4219L51.3809 32.5525C53.4289 30.1514 53.6607 27.6318 51.9904 25.9527C51.0131 24.9702 49.9883 24.7693 46.1016 24.7936ZM48.0839 25.3074C49.3964 25.3479 50.3478 25.9757 50.9675 27.1993C51.3745 28.0031 51.4393 28.3406 51.4393 29.5669C51.4393 31.1806 51.0429 32.2623 50.2201 32.8805C49.7963 33.1992 48.2376 33.4493 47.7925 33.2686C47.6991 33.2309 47.3366 33.1485 46.9867 33.0884L46.3506 32.979V25.4934L47.114 25.3731C47.4555 25.3202 47.7811 25.2982 48.0839 25.3074Z" fill="#614E70"/>
<path d="M102.925 40.4317C103.905 40.2949 103.958 39.8865 103.956 32.4479C103.954 26.0963 103.931 25.6341 103.598 25.2992C103.402 25.1022 102.968 24.9098 102.634 24.8717C102.3 24.8335 103.287 24.7977 104.827 24.7922C106.59 24.7857 107.388 24.8333 106.981 24.9209C106.626 24.9972 106.235 25.1512 106.112 25.2631C105.95 25.4104 105.889 27.4208 105.889 32.5537C105.889 39.2111 105.911 39.6627 106.247 40.0009C106.444 40.1992 106.922 40.3917 107.309 40.429C107.696 40.4662 106.753 40.4983 105.213 40.4998C103.673 40.5016 102.644 40.471 102.925 40.4317Z" fill="#614E70"/>
<path d="M114.628 40.4254C114.907 40.3809 115.251 40.1355 115.425 39.8562C115.702 39.4117 115.731 38.6651 115.731 32.0001V24.6351L113.495 24.6622C111.044 24.6919 110.668 24.8101 110.141 25.7178C109.81 26.2892 109.798 26.2939 109.814 25.8457C109.823 25.5895 109.923 24.9609 110.038 24.4487C110.228 23.5968 110.283 23.5254 110.685 23.6106C110.927 23.6618 113.815 23.7038 117.104 23.7038H123.083L123.073 25.1007C123.064 26.4276 123.053 26.4649 122.851 25.8478C122.556 24.9411 122.038 24.7459 119.55 24.6054L117.395 24.4836L117.449 32.0364C117.499 39.0877 117.524 39.6147 117.831 39.9711C118.012 40.1811 118.451 40.3852 118.806 40.4247C119.161 40.4642 118.255 40.498 116.794 40.4998C115.332 40.5018 114.357 40.4683 114.628 40.4254Z" fill="#614E70"/>
</svg>
