<svg width="154" height="23" viewBox="0 0 154 23" fill="none" xmlns="http://www.w3.org/2000/svg">
<mask id="mask0_2007_510" style="mask-type:luminance" maskUnits="userSpaceOnUse" x="0" y="0" width="154" height="23">
<path d="M153.175 0.200806H0.854614V22.9659H153.175V0.200806Z" fill="white"/>
</mask>
<g mask="url(#mask0_2007_510)">
<path d="M103.691 5.61933L103.755 5.62006L103.759 5.62018L103.813 8.58809C103.813 8.89512 103.972 9.15104 104.289 9.15104L113.385 9.20216C113.545 9.20216 113.65 9.30451 113.65 9.45809V13.0401C113.65 13.1903 113.549 13.2914 113.396 13.2957C113.355 13.3206 113.303 13.3344 113.245 13.3344H104.166C104.136 13.3344 104.107 13.3367 104.079 13.3412C103.902 13.4278 103.813 13.629 103.813 13.8588L103.759 17.2359C103.759 17.2878 103.747 17.335 103.726 17.3724C103.806 17.5609 104.023 17.6552 104.271 17.6552L107.756 17.7059C107.914 17.7059 108.019 17.8074 108.019 17.9597V21.5182C108.019 21.6705 107.914 21.772 107.756 21.772H95.7204C95.5611 21.772 95.4562 21.6705 95.4562 21.5182V17.9597C95.4562 17.8074 95.5611 17.7059 95.7204 17.7059L98.8349 17.6552C99.098 17.6552 99.3623 17.5537 99.4154 17.2987V5.40497C99.4154 5.09999 99.1511 4.9475 98.8349 4.9475L95.6673 4.89675C95.5092 4.89675 95.4031 4.795 95.4031 4.64251V1.08446C95.4031 0.931965 95.5092 0.830339 95.6673 0.830339H122.589C122.747 0.830339 122.853 0.982836 122.853 1.08446V7.28562C122.853 7.43811 122.747 7.53986 122.589 7.53986H118.894C118.736 7.53986 118.63 7.43811 118.63 7.28562L118.576 5.50659C118.576 5.20161 118.418 4.99837 118.154 4.9475H104.166C103.849 4.9475 103.691 5.20161 103.691 5.50659V5.61933ZM58.1173 17.5331C58.2235 17.5331 58.3816 17.6346 58.4334 17.7881V21.3636C58.4334 21.517 58.3284 21.6197 58.1704 21.6197H46.1541C45.9961 21.6197 45.8911 21.517 45.8911 21.3636V17.7881C45.8911 17.6346 45.9961 17.5331 46.1541 17.5331L48.3672 17.4824C48.6846 17.4824 48.7895 17.2782 48.6315 17.022C48.2622 16.5109 47.1026 14.8265 46.7864 14.4688C46.5234 14.1111 46.1541 14.0592 45.838 14.0592C45.5218 14.0592 40.4621 14.0592 40.4621 14.0592L36.8782 14.1111C36.7202 14.1111 36.6152 14.2126 36.6152 14.3661V17.022C36.6152 17.3289 36.8782 17.4824 37.1944 17.4824L40.7783 17.5331C40.9364 17.5331 41.0425 17.6346 41.0425 17.7881V21.3636C41.0425 21.517 40.9364 21.6197 40.7783 21.6197H28.762C28.6039 21.6197 28.4989 21.517 28.4989 21.3636V17.7881C28.4989 17.6346 28.6039 17.5331 28.762 17.5331L31.7666 17.4824C32.0828 17.4824 32.3458 17.3289 32.3458 17.022V5.42769C32.3458 5.12125 32.0828 4.96792 31.7666 4.96792L28.7101 4.91693C28.552 4.91693 28.4458 4.8147 28.4458 4.66148V0.932806C28.4458 0.77959 28.552 0.67749 28.7101 0.67749H48.7364C52.5315 0.67749 55.5881 3.69107 55.5881 7.36863C55.5881 9.82034 54.2704 11.9145 52.2672 13.0892C51.688 13.2936 51.6349 13.6511 51.8461 14.0084C52.0042 14.2646 53.533 16.6136 53.8492 17.1247C54.0592 17.4304 54.2173 17.4824 54.5334 17.4824L58.1173 17.5331ZM48.6315 9.87145C50.0542 9.87145 51.2138 8.74771 51.2138 7.36863C51.2138 5.98956 50.0542 4.86581 48.6315 4.86581H48.2622L36.8263 4.91693C36.6682 4.91693 36.5621 5.01903 36.5621 5.17224V9.5649C36.5621 9.71811 36.6682 9.82034 36.8263 9.82034L48.2622 9.87145H48.6315ZM20.5552 21.772H7.35879C4.44461 21.772 1.58233 19.2755 0.363564 16.2185C-0.0599872 15.0971 -0.272339 13.9253 -0.272339 12.7533V9.95096C-0.272339 8.779 -0.0599872 7.60704 0.363564 6.48619C1.58233 3.42898 4.28533 0.932207 7.35879 0.932207L25.3253 0.830339C25.4846 0.830339 25.5895 0.932202 25.5895 1.08506V7.30133C25.5895 7.45418 25.4846 7.55616 25.3253 7.55616H21.4566C21.2973 7.55616 21.1912 7.45418 21.1912 7.30133L21.1381 5.61993C21.1381 5.31422 20.9788 5.05939 20.6614 5.05939L7.94159 5.11038C6.56354 5.11038 5.13366 6.3842 4.44464 8.01473C4.17916 8.67714 4.07292 9.28856 4.07292 9.95096V12.8043C4.07292 13.4157 4.17916 14.0785 4.44464 14.7407C5.08057 16.3707 6.51165 17.747 7.94159 17.747L20.5552 17.6963C20.8738 17.6963 21.1381 17.4413 21.1381 17.1356L21.1912 15.3521C21.1912 15.1986 21.2973 15.0971 21.4566 15.0971H25.3253C25.4846 15.0971 25.5895 15.1986 25.5895 15.3521V21.4663C25.5895 21.6197 25.4846 21.7212 25.3253 21.7212H21.5097L20.5552 21.772ZM93.1164 17.7059C93.2744 17.7059 93.3794 17.8074 93.3263 17.9597V21.5182C93.3263 21.6705 93.2213 21.772 93.0633 21.772H81.0289C80.8708 21.772 80.7658 21.6705 80.7658 21.5182V17.9597C80.7658 17.8074 80.8708 17.7059 81.0289 17.7059L83.9853 17.6552C84.3014 17.6552 84.5657 17.5029 84.5657 17.1972V14.5038C84.5657 14.1981 84.4076 13.9444 84.0903 13.9444H70.2096C69.8923 13.9444 69.7342 14.1981 69.7342 14.5038V17.1972C69.7342 17.5029 69.9984 17.6552 70.3146 17.6552L73.271 17.7059C73.4291 17.7059 73.5341 17.8074 73.5341 17.9597V21.5182C73.5341 21.6705 73.4291 21.772 73.271 21.772H61.2366C61.0785 21.772 60.9723 21.6705 60.9723 21.5182V17.9597C60.9723 17.8074 61.0785 17.7059 61.2366 17.7059L64.9315 17.6552C65.2477 17.6552 65.512 17.5029 65.512 17.1972V9.82711C65.512 9.82711 65.512 8.70891 65.7231 7.79396C66.4085 4.3884 69.6811 0.830339 73.1648 0.830339H81.187C84.6188 0.830339 87.8901 4.3884 88.6298 7.79396C88.841 8.70891 88.8411 9.82711 88.8411 9.82711V17.1972C88.8411 17.5029 89.1041 17.6552 89.4214 17.6552L93.1164 17.7059ZM83.9853 9.77636C84.4076 9.77636 84.6188 9.62387 84.6188 9.16639C84.5657 8.75979 84.4595 8.25144 84.0372 7.38736C83.1937 5.60833 81.5574 4.89675 80.2904 4.89675H74.1145C72.8487 4.89675 71.2124 5.60833 70.3677 7.38736C69.9454 8.25144 69.8404 8.81054 69.7873 9.16639C69.7342 9.62387 69.9454 9.77636 70.3677 9.77636H83.9853ZM151.676 0.830339C151.835 0.830339 151.942 0.982836 152.048 1.08446V7.28562C152.048 7.43811 151.942 7.53986 151.782 7.53986H148.073C147.914 7.53986 147.807 7.43811 147.807 7.28562L147.754 5.50659C147.754 5.20161 147.596 4.99837 147.331 4.9475H141.343C141.025 4.9475 140.865 5.20161 140.865 5.50659V17.1972C140.865 17.5029 141.131 17.6552 141.448 17.6552L144.946 17.7059C145.106 17.7059 145.211 17.8074 145.211 17.9597V21.5182C145.211 21.6705 145.106 21.772 144.946 21.772H132.598C132.44 21.772 132.334 21.6705 132.334 21.5182V17.9597C132.334 17.8074 132.44 17.7059 132.598 17.7059L135.937 17.6552C136.203 17.6552 136.467 17.5537 136.52 17.2987V5.40497C136.52 5.09999 136.256 4.9475 135.937 4.9475H129.95C129.684 4.99837 129.525 5.20161 129.525 5.50659L129.472 7.28562C129.472 7.43811 129.367 7.53986 129.207 7.53986H125.498C125.339 7.53986 125.233 7.43811 125.233 7.28562V1.08446C125.233 0.931965 125.339 0.830339 125.498 0.830339H151.676Z" fill="#614E70"/>
<path d="M103.691 5.61933L103.755 5.62006L103.759 5.62018L103.813 8.58809C103.813 8.89512 103.972 9.15104 104.289 9.15104L113.385 9.20216C113.545 9.20216 113.65 9.30451 113.65 9.45809V13.0401C113.65 13.1903 113.549 13.2914 113.396 13.2957C113.355 13.3206 113.303 13.3344 113.245 13.3344H104.166C104.136 13.3344 104.107 13.3367 104.079 13.3412C103.902 13.4278 103.813 13.629 103.813 13.8588L103.759 17.2359C103.759 17.2878 103.747 17.335 103.726 17.3724C103.806 17.5609 104.023 17.6552 104.271 17.6552L107.756 17.7059C107.914 17.7059 108.019 17.8074 108.019 17.9597V21.5182C108.019 21.6705 107.914 21.772 107.756 21.772H95.7204C95.5611 21.772 95.4562 21.6705 95.4562 21.5182V17.9597C95.4562 17.8074 95.5611 17.7059 95.7204 17.7059L98.8349 17.6552C99.098 17.6552 99.3623 17.5537 99.4154 17.2987V5.40497C99.4154 5.09999 99.1511 4.9475 98.8349 4.9475L95.6673 4.89675C95.5092 4.89675 95.4031 4.795 95.4031 4.64251V1.08446C95.4031 0.931965 95.5092 0.830339 95.6673 0.830339H122.589C122.747 0.830339 122.853 0.982836 122.853 1.08446V7.28562C122.853 7.43811 122.747 7.53986 122.589 7.53986H118.894C118.736 7.53986 118.63 7.43811 118.63 7.28562L118.576 5.50659C118.576 5.20161 118.418 4.99837 118.154 4.9475H104.166C103.849 4.9475 103.691 5.20161 103.691 5.50659V5.61933ZM58.1173 17.5331C58.2235 17.5331 58.3816 17.6346 58.4334 17.7881V21.3636C58.4334 21.517 58.3284 21.6197 58.1704 21.6197H46.1541C45.9961 21.6197 45.8911 21.517 45.8911 21.3636V17.7881C45.8911 17.6346 45.9961 17.5331 46.1541 17.5331L48.3672 17.4824C48.6846 17.4824 48.7895 17.2782 48.6315 17.022C48.2622 16.5109 47.1026 14.8265 46.7864 14.4688C46.5234 14.1111 46.1541 14.0592 45.838 14.0592C45.5218 14.0592 40.4621 14.0592 40.4621 14.0592L36.8782 14.1111C36.7202 14.1111 36.6152 14.2126 36.6152 14.3661V17.022C36.6152 17.3289 36.8782 17.4824 37.1944 17.4824L40.7783 17.5331C40.9364 17.5331 41.0425 17.6346 41.0425 17.7881V21.3636C41.0425 21.517 40.9364 21.6197 40.7783 21.6197H28.762C28.6039 21.6197 28.4989 21.517 28.4989 21.3636V17.7881C28.4989 17.6346 28.6039 17.5331 28.762 17.5331L31.7666 17.4824C32.0828 17.4824 32.3458 17.3289 32.3458 17.022V5.42769C32.3458 5.12125 32.0828 4.96792 31.7666 4.96792L28.7101 4.91693C28.552 4.91693 28.4458 4.8147 28.4458 4.66148V0.932806C28.4458 0.77959 28.552 0.67749 28.7101 0.67749H48.7364C52.5315 0.67749 55.5881 3.69107 55.5881 7.36863C55.5881 9.82034 54.2704 11.9145 52.2672 13.0892C51.688 13.2936 51.6349 13.6511 51.8461 14.0084C52.0042 14.2646 53.533 16.6136 53.8492 17.1247C54.0592 17.4304 54.2173 17.4824 54.5334 17.4824L58.1173 17.5331ZM48.6315 9.87145C50.0542 9.87145 51.2138 8.74771 51.2138 7.36863C51.2138 5.98956 50.0542 4.86581 48.6315 4.86581H48.2622L36.8263 4.91693C36.6682 4.91693 36.5621 5.01903 36.5621 5.17224V9.5649C36.5621 9.71811 36.6682 9.82034 36.8263 9.82034L48.2622 9.87145H48.6315ZM20.5552 21.772H7.35879C4.44461 21.772 1.58233 19.2755 0.363564 16.2185C-0.0599872 15.0971 -0.272339 13.9253 -0.272339 12.7533V9.95096C-0.272339 8.779 -0.0599872 7.60704 0.363564 6.48619C1.58233 3.42898 4.28533 0.932207 7.35879 0.932207L25.3253 0.830339C25.4846 0.830339 25.5895 0.932202 25.5895 1.08506V7.30133C25.5895 7.45418 25.4846 7.55616 25.3253 7.55616H21.4566C21.2973 7.55616 21.1912 7.45418 21.1912 7.30133L21.1381 5.61993C21.1381 5.31422 20.9788 5.05939 20.6614 5.05939L7.94159 5.11038C6.56354 5.11038 5.13366 6.3842 4.44464 8.01473C4.17916 8.67714 4.07292 9.28856 4.07292 9.95096V12.8043C4.07292 13.4157 4.17916 14.0785 4.44464 14.7407C5.08057 16.3707 6.51165 17.747 7.94159 17.747L20.5552 17.6963C20.8738 17.6963 21.1381 17.4413 21.1381 17.1356L21.1912 15.3521C21.1912 15.1986 21.2973 15.0971 21.4566 15.0971H25.3253C25.4846 15.0971 25.5895 15.1986 25.5895 15.3521V21.4663C25.5895 21.6197 25.4846 21.7212 25.3253 21.7212H21.5097L20.5552 21.772ZM93.1164 17.7059C93.2744 17.7059 93.3794 17.8074 93.3263 17.9597V21.5182C93.3263 21.6705 93.2213 21.772 93.0633 21.772H81.0289C80.8708 21.772 80.7658 21.6705 80.7658 21.5182V17.9597C80.7658 17.8074 80.8708 17.7059 81.0289 17.7059L83.9853 17.6552C84.3014 17.6552 84.5657 17.5029 84.5657 17.1972V14.5038C84.5657 14.1981 84.4076 13.9444 84.0903 13.9444H70.2096C69.8923 13.9444 69.7342 14.1981 69.7342 14.5038V17.1972C69.7342 17.5029 69.9984 17.6552 70.3146 17.6552L73.271 17.7059C73.4291 17.7059 73.5341 17.8074 73.5341 17.9597V21.5182C73.5341 21.6705 73.4291 21.772 73.271 21.772H61.2366C61.0785 21.772 60.9723 21.6705 60.9723 21.5182V17.9597C60.9723 17.8074 61.0785 17.7059 61.2366 17.7059L64.9315 17.6552C65.2477 17.6552 65.512 17.5029 65.512 17.1972V9.82711C65.512 9.82711 65.512 8.70891 65.7231 7.79396C66.4085 4.3884 69.6811 0.830339 73.1648 0.830339H81.187C84.6188 0.830339 87.8901 4.3884 88.6298 7.79396C88.841 8.70891 88.8411 9.82711 88.8411 9.82711V17.1972C88.8411 17.5029 89.1041 17.6552 89.4214 17.6552L93.1164 17.7059ZM83.9853 9.77636C84.4076 9.77636 84.6188 9.62387 84.6188 9.16639C84.5657 8.75979 84.4595 8.25144 84.0372 7.38736C83.1937 5.60833 81.5574 4.89675 80.2904 4.89675H74.1145C72.8487 4.89675 71.2124 5.60833 70.3677 7.38736C69.9454 8.25144 69.8404 8.81054 69.7873 9.16639C69.7342 9.62387 69.9454 9.77636 70.3677 9.77636H83.9853ZM151.676 0.830339C151.835 0.830339 151.942 0.982836 152.048 1.08446V7.28562C152.048 7.43811 151.942 7.53986 151.782 7.53986H148.073C147.914 7.53986 147.807 7.43811 147.807 7.28562L147.754 5.50659C147.754 5.20161 147.596 4.99837 147.331 4.9475H141.343C141.025 4.9475 140.865 5.20161 140.865 5.50659V17.1972C140.865 17.5029 141.131 17.6552 141.448 17.6552L144.946 17.7059C145.106 17.7059 145.211 17.8074 145.211 17.9597V21.5182C145.211 21.6705 145.106 21.772 144.946 21.772H132.598C132.44 21.772 132.334 21.6705 132.334 21.5182V17.9597C132.334 17.8074 132.44 17.7059 132.598 17.7059L135.937 17.6552C136.203 17.6552 136.467 17.5537 136.52 17.2987V5.40497C136.52 5.09999 136.256 4.9475 135.937 4.9475H129.95C129.684 4.99837 129.525 5.20161 129.525 5.50659L129.472 7.28562C129.472 7.43811 129.367 7.53986 129.207 7.53986H125.498C125.339 7.53986 125.233 7.43811 125.233 7.28562V1.08446C125.233 0.931965 125.339 0.830339 125.498 0.830339H151.676Z" fill="#614E70"/>
</g>
</svg>
