<svg width="170" height="37" viewBox="0 0 170 37" fill="none" xmlns="http://www.w3.org/2000/svg">
<mask id="mask0_2007_404" style="mask-type:luminance" maskUnits="userSpaceOnUse" x="0" y="0" width="170" height="37">
<path d="M169.894 0.123047H0.55954V36.9849H169.894V0.123047Z" fill="white"/>
</mask>
<g mask="url(#mask0_2007_404)">
<path fill-rule="evenodd" clip-rule="evenodd" d="M43.0569 3.03164C41.6741 3.25021 41.4786 3.3065 40.5084 3.76276C38.4027 4.7538 36.7568 6.29719 35.7238 8.25242C35.2375 9.17268 34.9045 9.93164 34.9045 10.1244C34.9045 10.2215 34.8562 10.3305 34.7959 10.3668C34.7356 10.4024 34.6559 10.6054 34.6185 10.8178C34.5811 11.0307 34.4399 11.7644 34.3036 12.4485C33.8535 14.7065 34.0043 18.0635 34.6583 20.4186C34.7259 20.6631 34.8309 21.0361 34.89 21.2479C35.567 23.6635 37.657 26.1251 39.8942 27.1408C41.4569 27.8507 42.094 27.9734 44.2299 27.9734C49.9062 27.9734 53.7073 24.6907 53.6831 19.8084C53.665 16.1956 52.0819 13.8953 48.6971 12.5653C47.4747 12.0848 44.5243 11.9241 43.3984 12.277C41.7079 12.8066 40.1681 13.7283 39.1424 14.8254C38.2253 15.8076 38.0431 14.5401 38.7165 11.8559C40.0149 6.68263 45.9289 4.69025 49.9243 8.08083C50.2899 8.39089 50.3937 8.42956 50.4866 8.29217C50.5493 8.19913 50.8619 7.70722 51.1804 7.19935C51.5002 6.69091 51.8538 6.13081 51.9672 5.95461C52.2797 5.46686 52.2447 5.38416 51.4966 4.84991C49.0772 3.12205 46.2885 2.52112 43.0569 3.03164ZM27.1454 3.44447C26.7521 3.74519 20.2624 10.0685 20.2154 10.1963C20.1816 10.2912 20.5376 10.6882 21.9989 12.1819C22.5105 12.7043 22.3561 12.7983 24.4931 10.6519C25.6914 9.44758 26.4552 8.76656 26.5457 8.8207C26.6555 8.88582 26.6917 11.1743 26.6917 18.1368C26.6917 24.4092 26.7315 27.3914 26.8184 27.443C26.9717 27.5352 30.7571 27.5193 30.8524 27.4261C31.0105 27.2738 30.9876 3.40055 30.8295 3.30082C30.5109 3.0988 27.4411 3.21868 27.1454 3.44447ZM142.044 6.90274C142.038 7.83494 142.041 8.8729 142.052 9.21087C142.075 9.98178 141.941 10.0624 140.704 10.0169C139.156 9.95955 139.018 10.0081 138.968 10.6287C138.899 11.475 138.942 11.5004 140.462 11.5004C141.637 11.5004 141.814 11.5272 141.92 11.7195C141.995 11.8553 142.046 14.445 142.052 18.5631C142.063 26.0713 142.07 26.1406 142.929 27.0867C143.955 28.2152 146.712 28.3563 147.99 27.345L148.35 27.061L148.082 26.51C147.774 25.8781 147.74 25.8674 147.114 26.2185C146.012 26.8371 144.62 26.5235 144.085 25.537C143.781 24.9785 143.613 12.0042 143.904 11.6641C144.012 11.5391 144.448 11.5004 145.753 11.5004H147.459L147.386 10.1378L145.853 10.1089C143.529 10.0644 143.781 10.3611 143.741 7.61792L143.709 5.27877L142.053 5.2085L142.044 6.90274ZM9.58919 9.7203C9.25252 9.77516 8.73968 9.85829 8.45128 9.90578C8.16409 9.9529 7.89861 10.0381 7.86241 10.0944C7.82621 10.1507 7.69228 10.1967 7.56557 10.1967C7.14082 10.1967 5.43575 11.0307 4.58985 11.6523C3.61122 12.371 3.61484 12.3229 4.46677 13.7346C5.11597 14.8109 5.20526 14.8527 5.76396 14.3433C7.84069 12.4511 12.4901 12.1622 14.0829 13.8266C14.8661 14.6461 14.9723 14.9798 15.0145 16.7743C15.0604 18.7579 15.0012 18.9114 14.3653 18.4253C13.3517 17.6476 12.9173 17.397 12.1305 17.1339C7.15528 15.4722 2.75566 17.8005 2.73153 22.1072C2.71584 24.9377 3.96237 26.6155 6.86569 27.6717C9.06429 28.4721 12.7737 27.6627 14.4824 26.0103C14.8588 25.6472 15.0447 25.8843 15.0447 26.7287V27.5058L18.783 27.4401L18.8216 21.9294C18.8723 14.4436 18.7589 13.6463 17.3941 11.9447C16.582 10.9336 15.3415 10.2149 13.7945 9.85926C13.0307 9.68417 10.3603 9.59584 9.58919 9.7203ZM80.8169 9.67076C80.6818 9.70072 80.2679 9.78748 79.8974 9.86349C71.4023 11.599 70.9075 24.6369 79.2229 27.6303C81.9162 28.6 85.5303 27.8277 87.5974 25.8408C88.3624 25.1046 88.3697 25.0385 87.7422 24.4907L87.251 24.0614L86.5029 24.7781C84.1197 27.0615 79.889 27.008 77.4804 24.6654C73.7457 21.033 74.6145 13.8561 79.0395 11.7737C81.6037 10.5672 84.6904 10.9593 86.5367 12.726L87.2293 13.3889L88.3624 12.5524L88.0981 12.1942C86.7973 10.4277 83.1193 9.15299 80.8169 9.67076ZM128.2 9.67535C126.732 9.93224 125.017 10.8111 123.913 11.8719C122.999 12.7492 122.928 12.7095 122.928 11.32C122.928 10.0365 122.856 9.94251 121.889 9.97816C121.142 10.0056 121.201 8.88691 121.24 22.4033L121.273 34.3139H122.867L122.899 29.6619C122.935 24.4473 122.892 24.6432 123.806 25.5736C125.441 27.2376 127.151 27.9734 129.388 27.9734C130.511 27.9734 130.792 27.9304 132.187 27.5455C138.594 25.7778 139.593 13.9769 133.622 10.5874C132.321 9.8485 129.715 9.41036 128.2 9.67535ZM157.317 9.67124C157.182 9.70229 156.74 9.78797 156.336 9.86143C155.931 9.93526 155.545 10.0335 155.478 10.0799C155.41 10.1264 155.212 10.1972 155.037 10.2376C154.048 10.4655 152.177 12.0217 151.281 13.3626C150.877 13.9682 150.684 14.3428 150.261 15.3519C149.297 17.6517 149.684 21.9564 151.024 23.8439C151.147 24.0169 151.248 24.2169 151.248 24.2882C151.248 24.3595 151.299 24.4179 151.363 24.4179C151.426 24.4179 151.511 24.5238 151.555 24.6535C151.597 24.7833 152.047 25.2874 152.556 25.7742C155.948 29.0213 161.879 28.7195 164.932 25.1443C167.507 22.1294 167.907 17.0099 165.823 13.7583C165.633 13.4618 165.392 13.0737 165.288 12.8965C164.688 11.8755 162.735 10.4701 161.362 10.0717C161.092 9.99362 160.74 9.88052 160.578 9.82107C160.251 9.70012 157.702 9.58339 157.317 9.67124ZM97.8579 9.86143C96.5776 10.2789 95.6122 10.9072 94.344 12.1493C93.3195 13.1517 93.2604 13.1156 93.2604 11.4911C93.2604 9.9761 93.1433 9.82518 92.1297 10.0319L91.606 10.1389V27.4401H93.1989L93.2628 14.3898L93.871 13.7299C95.0101 12.494 96.866 11.5717 98.5409 11.4105L99.452 11.3227L99.5232 9.72296L98.8752 9.73226C98.518 9.73734 98.0594 9.79582 97.8579 9.86143ZM56.7276 10.0515C56.4923 10.0769 56.2594 10.16 56.2087 10.236C56.0784 10.4339 56.0917 13.0143 56.2232 13.0929C56.2836 13.1285 58.2143 13.1601 60.5154 13.1631C62.8154 13.1657 64.7799 13.1982 64.8801 13.2355C65.2843 13.3858 65.0864 13.6984 62.8202 16.4803C62.7394 16.5795 62.5101 16.8725 62.311 17.1319C62.1119 17.3913 61.9188 17.6305 61.8802 17.663C61.8428 17.6957 61.2443 18.4423 60.5529 19.3222C59.8602 20.2021 58.6885 21.6685 57.95 22.5811C56.1086 24.854 56.0965 24.8762 56.14 26.2884L56.175 27.4401L70.4574 27.501V24.5368L69.9977 24.5321C69.7443 24.5295 67.7653 24.5316 65.5981 24.5363C62.1228 24.5445 61.6341 24.5227 61.4591 24.3538C61.2274 24.13 61.2117 24.1606 62.1759 22.9566C62.5837 22.4462 63.0833 21.8045 63.286 21.531C63.4876 21.2577 63.9847 20.6309 64.389 20.1386C64.7932 19.6457 65.2349 19.0964 65.37 18.917C65.5039 18.7383 65.6982 18.4934 65.7996 18.3724C65.8997 18.2521 66.5345 17.4501 67.209 16.5909C67.8835 15.7312 68.8489 14.5153 69.3545 13.8891L70.2728 12.7497L70.315 11.551C70.3754 9.7777 71.1091 9.94771 63.5491 9.97924C60.0328 9.99362 56.9629 10.0262 56.7276 10.0515ZM101.92 10.172C101.871 10.2469 103.569 14.3866 104.043 15.3519C104.107 15.4826 104.304 15.9357 104.48 16.3594C104.656 16.7831 104.909 17.3602 105.043 17.6419C105.175 17.9234 105.446 18.5466 105.642 19.0262C105.84 19.5056 106.106 20.1283 106.235 20.4098C106.364 20.6915 106.617 21.2686 106.8 21.6923C106.982 22.116 107.176 22.5691 107.233 22.6999C107.288 22.8301 107.444 23.1768 107.577 23.4698C108.117 24.6592 109.442 27.8652 109.442 27.9847C109.442 28.0549 109.288 28.4415 109.097 28.8429C108.906 29.2444 108.59 29.9196 108.394 30.3434C107.123 33.0856 106.214 33.7391 104.327 33.2665L103.691 33.1067L103.563 33.4612C103.237 34.3669 103.347 34.5557 104.302 34.7297C105.664 34.9781 107.226 34.581 108.202 33.7357C108.496 33.4808 109.442 32.3013 109.442 32.1887C109.442 32.1551 109.587 31.8195 109.763 31.4431C110.116 30.6886 110.334 30.2008 110.521 29.7508C110.589 29.588 110.76 29.2021 110.902 28.8929C111.044 28.5841 111.159 28.3081 111.159 28.2798C111.159 28.2513 111.352 27.8234 111.589 27.3296C111.824 26.8361 112.017 26.4026 112.017 26.3664C112.017 26.3308 112.125 26.0735 112.256 25.7944C112.388 25.5159 112.603 25.0254 112.733 24.7047C112.864 24.3843 113.143 23.7607 113.353 23.3189C113.562 22.8771 113.734 22.4828 113.734 22.442C113.734 22.3573 114.938 19.6219 115.462 18.5141C115.658 18.1023 115.818 17.6992 115.818 17.6192C115.818 17.5391 115.864 17.4228 115.922 17.3608C115.979 17.2987 116.115 17.0239 116.225 16.7495C116.335 16.4751 116.541 15.9957 116.685 15.6831C116.828 15.3705 117.002 14.9819 117.071 14.8186C117.139 14.6559 117.245 14.4291 117.305 14.3143C117.365 14.1996 117.578 13.7103 117.777 13.2266C117.975 12.7431 118.257 12.09 118.402 11.7758C118.547 11.4616 118.747 11.0271 118.846 10.8106C119.126 10.1967 119.006 10.0784 118.105 10.0784C117.159 10.0784 117.248 9.9807 116.436 11.9152C116.08 12.7626 115.389 14.3893 114.9 15.5301C114.41 16.6705 113.526 18.7502 112.934 20.1515C112.343 21.5533 111.812 22.7505 111.754 22.8125C111.696 22.874 111.649 22.9975 111.649 23.0864C111.649 23.1752 111.507 23.5509 111.331 23.9218C111.156 24.2923 110.928 24.7827 110.824 25.0107C110.721 25.2389 110.616 25.4471 110.592 25.4742C110.514 25.5609 110.056 25.0974 110.056 24.9315C110.056 24.8426 110.002 24.6778 109.936 24.5647C109.871 24.4515 109.675 24.0123 109.501 23.5886C109.154 22.7376 109.093 22.5981 108.719 21.7827C108.578 21.4738 108.462 21.19 108.462 21.1528C108.462 21.1151 108.319 20.7814 108.143 20.4109C107.968 20.0404 107.686 19.3903 107.518 18.9667C107.347 18.5431 107.106 17.971 106.978 17.6961C106.851 17.4213 106.383 16.328 105.938 15.2666C105.493 14.2059 105.078 13.2866 105.017 13.2251C104.957 13.1631 104.906 13.0422 104.906 12.9569C104.906 12.8718 104.792 12.5488 104.652 12.2398C103.902 10.592 103.732 10.2485 103.62 10.1693C103.455 10.0515 101.994 10.0542 101.92 10.172ZM159.461 11.149C163.794 11.6925 166.547 17.2553 164.764 21.8701C164.154 23.4522 163.985 23.7188 163.005 24.6546C161.561 26.0338 160.401 26.4921 158.358 26.4921C153.333 26.4921 150.431 21.7145 151.964 15.9647C152.84 12.6795 155.915 10.7041 159.461 11.149ZM130.755 11.367C133.283 12.1277 134.724 13.7883 135.422 16.7464C135.595 17.475 135.595 20.3939 135.424 21.0268C135.351 21.2949 135.233 21.728 135.161 21.9889C134.872 23.0358 134.283 23.9952 133.412 24.8328C132.625 25.5881 132.292 25.8145 131.571 26.0811C131.437 26.1308 131.133 26.2438 130.897 26.3319C130.323 26.5461 127.562 26.5456 126.974 26.3308C125.31 25.7231 123.866 24.7656 123.153 23.7968C122.874 23.4191 122.641 16.177 122.861 14.7576C123.197 12.5839 127.977 10.5311 130.755 11.367ZM46.1377 15.7776C48.2108 16.5879 49.1073 17.6217 49.3221 19.4509C49.9484 24.7806 41.452 26.4237 39.0833 21.4309C37.8899 18.9145 38.165 18.0496 40.6568 16.4937C42.0602 15.6164 44.8067 15.2578 46.1377 15.7776ZM11.9097 19.1429C14.2917 19.6927 15.0447 20.4625 15.0447 22.3505V23.6676L14.5849 24.1136C12.04 26.5825 7.21924 25.9175 6.51574 23C5.87257 20.3354 8.60574 18.3802 11.9097 19.1429Z" fill="#614E70" stroke="#614E70" stroke-width="0.50844"/>
</g>
</svg>
