<svg width="170" height="39" viewBox="0 0 170 39" fill="none" xmlns="http://www.w3.org/2000/svg">
<mask id="mask0_2007_419" style="mask-type:luminance" maskUnits="userSpaceOnUse" x="0" y="0" width="170" height="39">
<path d="M169.731 0.325684H0.374359V38.7652H169.731V0.325684Z" fill="white"/>
</mask>
<g mask="url(#mask0_2007_419)">
<path d="M34.3791 12.4272L13.1063 0.599487L10.4479 2.07902V5.03524L7.78832 3.55571L5.12875 5.03524V7.99147L2.47039 6.51194L-0.189148 7.99147V31.6471L2.47039 33.1266L5.12875 31.6471V34.6033L7.78832 36.0828L10.4479 34.6033V37.5595L13.1063 39.039L34.3791 27.2112V24.2549L31.7195 22.7754L34.3791 21.2959V18.3397L31.7195 16.8601L34.3791 15.3806V12.4272ZM5.12875 28.6908L2.47039 30.1703V9.47105L5.12875 10.9505V28.6908ZM13.1063 30.1674V27.2112L23.7421 21.2988L26.4016 22.7783L13.1063 30.1674ZM21.0837 19.8192L13.1063 24.2549V15.3834L21.0837 19.8192ZM23.7421 18.3397L13.1063 12.4272V9.47105L26.4016 16.863L23.7421 18.3397ZM7.78832 6.51194L10.4479 7.99147V10.9478L7.78832 9.46815V6.51194ZM7.78832 12.4272L10.4479 13.9068V25.7346L7.78832 27.2141V12.4272ZM7.78832 30.1674L10.4479 28.6879V31.6441L7.78832 33.1236V30.1674ZM31.7195 25.7317L13.1063 36.0798V33.1236L29.06 24.2522L31.7195 25.7317ZM31.7195 19.8192L29.06 21.2988L26.4016 19.8192L29.06 18.3397L31.7195 19.8192ZM29.06 15.3834L13.1063 6.51194V3.55571L31.7195 13.9039L29.06 15.3834Z" fill="#614E70"/>
<path d="M45.424 30.1696H42.3542V9.47327H51.7206C56.0188 9.47327 58.6277 11.9856 58.6277 15.6816C58.6277 19.3776 56.0188 21.89 51.7206 21.89H45.4276V30.1696H45.424ZM55.5579 15.6816C55.5579 13.613 54.3295 11.9856 51.7206 11.9856H45.4276V19.3776H51.7206C54.3295 19.3776 55.5579 17.7501 55.5579 15.6816ZM59.7656 18.7858C60.0721 16.3303 62.22 14.35 66.5521 14.35C69.1923 14.35 71.432 15.03 72.5699 16.8623C73.0598 17.6619 73.3385 18.7261 73.3385 19.9666V30.1668H70.3894V28.2435C69.4674 29.427 67.6272 30.6077 65.0159 30.6077C61.7591 30.6077 58.997 28.9804 58.997 25.5804C58.997 22.92 60.8697 21.0278 64.8615 20.7006L70.3894 20.2568V19.9609C70.3894 17.8923 69.4675 16.5607 66.5521 16.5607C64.2171 16.5607 62.9585 17.4485 62.8053 18.7772H59.7656V18.7858ZM70.387 23.5175V22.3338L65.1656 22.7776C63.0153 22.954 61.9425 23.9613 61.9425 25.586C61.9425 27.6572 63.4786 28.3943 65.32 28.3943C68.0846 28.397 70.387 26.6216 70.387 23.5175ZM82.4226 17.1612C80.2746 17.1612 78.893 18.3447 78.893 21.0051V30.1725H75.9438V14.7939H78.893V16.5693C79.6604 15.2377 80.8864 14.498 83.1912 14.498H84.0214V17.1583H82.4226V17.1612ZM84.9108 18.7858C85.2185 16.3303 87.3664 14.35 91.6972 14.35C94.3387 14.35 96.5783 15.03 97.715 16.8623C98.2062 17.6619 98.4837 18.7261 98.4837 19.9666V30.1668H95.5345V28.2435C94.6138 29.427 92.7724 30.6077 90.1611 30.6077C86.9054 30.6077 84.1421 28.9804 84.1421 25.5804C84.1421 22.92 86.0161 21.0278 90.0078 20.7006L95.5345 20.2568V19.9609C95.5345 17.8923 94.6138 16.5607 91.6972 16.5607C89.3635 16.5607 88.1049 17.4485 87.9504 18.7772H84.9108V18.7858ZM95.5345 23.5175V22.3338L90.3143 22.7776C88.164 22.954 87.0913 23.9613 87.0913 25.586C87.0913 27.6572 88.6274 28.3943 90.4676 28.3943C93.2309 28.397 95.5345 26.6216 95.5345 23.5175ZM112.975 28.1011C112.054 29.5808 110.213 30.6134 107.755 30.6134C102.965 30.6134 100.357 26.9176 100.357 22.4818C100.357 18.046 102.965 14.35 107.755 14.35C110.21 14.35 112.054 15.3856 112.975 16.8623V9.47327H115.92V30.1725H112.973V28.1011H112.975ZM108.216 16.7172C104.993 16.7172 103.302 19.2296 103.302 22.4818C103.302 25.7338 104.993 28.2492 108.216 28.2492C111.439 28.2492 113.129 25.5887 113.129 22.4818C113.129 19.3776 111.439 16.7172 108.216 16.7172ZM127.284 27.8053V30.1696H117.827V27.8053H121.083V17.1612H117.827V14.7967H124.028V27.808H127.284V27.8053ZM124.028 12.4295H121.079V9.47327H124.028V12.4295ZM139.686 27.8053C139.072 28.693 137.385 30.0217 134.619 30.0217C130.138 30.0217 127.222 26.4737 127.222 22.1859C127.222 17.898 130.138 14.35 134.619 14.35C137.382 14.35 139.072 15.6816 139.686 16.5664V14.791H142.636V28.5393C142.636 33.4191 139.719 35.9314 135.08 35.9314C131.518 35.9314 128.909 34.1559 128.294 31.4955H131.364C131.641 32.5596 132.777 33.7121 135.078 33.7121C138.454 33.7121 139.684 31.6436 139.684 28.5365V27.8053H139.686ZM134.93 16.7172C132.014 16.7172 130.17 19.2296 130.17 22.1887C130.17 25.1449 132.011 27.6601 134.93 27.6601C137.999 27.6601 139.843 25.1478 139.843 22.1887C139.841 19.2296 137.999 16.7172 134.93 16.7172ZM148.284 16.5693C149.206 14.9418 151.046 14.3529 152.89 14.3529C155.038 14.3529 157.035 15.2405 157.957 17.0131C158.879 15.3856 160.566 14.3529 163.332 14.3529C166.708 14.3529 169.166 16.2763 169.166 20.1174V30.1696H166.218V20.5612C166.218 18.0488 165.143 16.7172 162.717 16.7172C160.719 16.7172 158.726 17.9009 158.726 21.0051V30.1725H155.777V20.5641C155.777 18.0517 154.701 16.7201 152.276 16.7201C150.279 16.7201 148.284 17.9037 148.284 21.0079V30.1754H145.336V14.7939H148.284V16.5693Z" fill="#614E70"/>
</g>
</svg>
