<svg width="163" height="21" viewBox="0 0 163 21" fill="none" xmlns="http://www.w3.org/2000/svg">
<mask id="mask0_2007_425" style="mask-type:luminance" maskUnits="userSpaceOnUse" x="0" y="0" width="163" height="21">
<path d="M162.949 0.52002H0.393677V20.5541H162.949V0.52002Z" fill="white"/>
</mask>
<g mask="url(#mask0_2007_425)">
<path d="M15.4123 6.00154C15.4123 5.30046 15.2698 4.64119 14.9839 4.02362C14.6991 3.40604 14.2707 2.88029 13.7 2.44638C13.058 1.96232 12.3364 1.62024 11.5327 1.4199C10.7484 1.21956 9.94592 1.11951 9.12536 1.11951H-0.452209V2.29618H2.06253V17.1176H-0.452209V18.2943C1.01031 18.2443 2.4825 18.2192 3.96191 18.2192C5.42443 18.2192 6.89655 18.2443 8.37596 18.2943V17.1176H5.86123V10.7584H9.12536C9.94592 10.7584 10.7484 10.6667 11.5327 10.483C12.3364 10.2827 13.058 9.94058 13.7 9.45652C14.2526 9.03929 14.6726 8.53022 14.9573 7.92931C15.2602 7.31173 15.4123 6.66914 15.4123 6.00154ZM11.3191 6.00154C11.3191 6.2519 11.3107 6.51061 11.2926 6.77765C11.2926 7.04469 11.2745 7.3034 11.2395 7.55376C11.2214 7.80413 11.1767 8.03782 11.1055 8.25472C11.0512 8.47173 10.9632 8.64706 10.8377 8.78058C10.5167 9.16447 10.1064 9.41484 9.60682 9.53168C9.10725 9.64841 8.59923 9.70689 8.08276 9.70689H5.72851V2.29618H8.08276C8.59923 2.29618 9.10725 2.35454 9.60682 2.47139C10.1064 2.58824 10.5167 2.83027 10.8377 3.19748C10.9632 3.331 11.0512 3.50621 11.1055 3.72322C11.1767 3.94024 11.2214 4.18227 11.2395 4.44931C11.2745 4.69968 11.2926 4.95838 11.2926 5.22542C11.3107 5.49247 11.3191 5.75117 11.3191 6.00154Z" fill="#614E70"/>
<path d="M35.4663 9.80388C35.4663 8.60219 35.2878 7.44219 34.9306 6.32388C34.5927 5.18889 33.9954 4.17908 33.1387 3.29446C32.3362 2.45999 31.3913 1.84241 30.3029 1.44185C29.2325 1.04116 28.1091 0.840942 26.9326 0.840942C25.7549 0.840942 24.6229 1.04116 23.5345 1.44185C22.4642 1.84241 21.5278 2.45999 20.7253 3.29446C19.8698 4.17908 19.2628 5.18889 18.9069 6.32388C18.5678 7.44219 18.3976 8.60219 18.3976 9.80388C18.3976 10.9722 18.5762 12.1155 18.9334 13.2339C19.2894 14.3355 19.8879 15.3202 20.7253 16.1881C21.5278 16.9894 22.4642 17.5901 23.5345 17.9907C24.6229 18.3746 25.7549 18.5666 26.9326 18.5666C28.1091 18.5666 29.2325 18.3746 30.3029 17.9907C31.3913 17.5901 32.3362 16.9894 33.1387 16.1881C33.9773 15.3202 34.5746 14.3355 34.9306 13.2339C35.2878 12.1155 35.4663 10.9722 35.4663 9.80388ZM31.3733 9.35329C31.3733 10.3881 31.3286 11.4146 31.2393 12.4327C31.15 13.4509 30.8556 14.4189 30.356 15.3368C30 15.9711 29.527 16.497 28.9381 16.9142C28.3505 17.3148 27.6808 17.5151 26.9326 17.5151C26.1833 17.5151 25.5147 17.3148 24.9258 16.9142C24.337 16.497 23.864 15.9711 23.508 15.3368C23.0084 14.4189 22.714 13.4509 22.6247 12.4327C22.5354 11.4146 22.4907 10.3881 22.4907 9.35329C22.4907 8.40185 22.5354 7.45886 22.6247 6.52422C22.714 5.58945 23.0084 4.69649 23.508 3.84522C23.864 3.26111 24.337 2.78539 24.9258 2.41818C25.5316 2.03429 26.2014 1.84241 26.9326 1.84241C27.6639 1.84241 28.3227 2.03429 28.9115 2.41818C29.5185 2.78539 30 3.26111 30.356 3.84522C30.8556 4.69649 31.15 5.58945 31.2393 6.52422C31.3286 7.45886 31.3733 8.40185 31.3733 9.35329Z" fill="#614E70"/>
<path d="M51.8641 11.4344H50.6067C50.5175 12.2022 50.3835 12.9699 50.2049 13.7377C50.0444 14.4888 49.7054 15.1565 49.1889 15.7406C48.7967 16.1746 48.3321 16.5167 47.7976 16.7671C47.2799 17.0008 46.7188 17.1176 46.1118 17.1176H44.1859V2.29618H47.3427V1.11951C45.6485 1.16953 43.9627 1.19454 42.2866 1.19454C40.806 1.19454 39.335 1.16953 37.8725 1.11951V2.29618H40.3872V17.1176H37.8725V18.2943H51.0617L51.8641 11.4344Z" fill="#614E70"/>
<path d="M70.5559 2.29618V1.11951C69.6642 1.16953 68.7809 1.19454 67.9072 1.19454H67.8806C66.8103 1.19454 65.7399 1.16953 64.6696 1.11951V2.29618C64.8844 2.29618 65.098 2.30452 65.3128 2.32119C65.5445 2.33787 65.7761 2.36288 66.0078 2.39635C66.1321 2.4297 66.2492 2.46305 66.3554 2.4964C66.4628 2.5132 66.4978 2.55489 66.4628 2.62159L62.1826 9.63173L57.6877 2.29618H59.6944V1.11951C58.1957 1.16953 56.6897 1.19454 55.1729 1.19454H55.1464C53.8443 1.19454 52.5423 1.16953 51.2403 1.11951V2.29618H53.4883L59.079 11.4344V17.1176H56.5642V18.2943C58.0086 18.2443 59.453 18.2192 60.8987 18.2192C62.3431 18.2192 63.7875 18.2443 65.2319 18.2943V17.1176H62.7172V11.4344L68.0942 2.62159C68.1485 2.53821 68.2463 2.48807 68.3887 2.47139C68.5311 2.43804 68.6746 2.40469 68.817 2.37122C69.1018 2.33787 69.3878 2.32119 69.6726 2.32119C69.9586 2.30452 70.253 2.29618 70.5559 2.29618Z" fill="#614E70"/>
<path d="M88.7963 12.4327C88.7963 12.2157 88.672 12.1072 88.4223 12.1072H87.8877C87.656 12.1072 87.539 12.2157 87.539 12.4327C87.539 13.117 87.4063 13.7596 87.1384 14.3605C86.8705 14.9614 86.5048 15.4872 86.0414 15.9377C85.5949 16.3884 85.0604 16.7473 84.4366 17.0144C83.8296 17.2647 83.1792 17.3899 82.4829 17.3899C81.5743 17.3899 80.709 17.2229 79.8885 16.8892C79.086 16.5553 78.426 16.0546 77.9083 15.387C77.6054 15.0031 77.3641 14.5859 77.1867 14.1351C77.0081 13.6846 76.8742 13.2172 76.7849 12.7331C76.6956 12.2491 76.6328 11.7567 76.5978 11.256C76.5797 10.7386 76.5713 10.2211 76.5713 9.70371C76.5713 8.65221 76.6328 7.64241 76.7583 6.67441C76.9007 5.68962 77.276 4.805 77.8818 4.02055C78.3994 3.35295 79.0595 2.85221 79.862 2.51835C80.6825 2.18449 81.5477 2.01762 82.4564 2.01762C83.1345 2.01762 83.7584 2.15947 84.3292 2.44319C84.8999 2.72703 85.3995 3.11092 85.8278 3.59485C86.255 4.07891 86.6025 4.64647 86.8704 5.2974C87.1383 5.93165 87.3073 6.59926 87.3797 7.30033C87.4146 7.51723 87.5389 7.62573 87.7537 7.62573H88.4223C88.5297 7.62573 88.6189 7.59238 88.6901 7.52556C88.7613 7.44219 88.7963 7.35869 88.7963 7.2752V1.19148C88.7963 0.957788 88.672 0.840942 88.4223 0.840942H88.2087C88.1194 0.840942 88.0385 0.865954 87.9673 0.915979L86.2285 2.39317C85.6577 1.90911 85.0157 1.53356 84.3026 1.26652C83.5894 0.9828 82.8135 0.840942 81.9749 0.840942C80.709 0.840942 79.4685 1.03283 78.257 1.41671C77.0612 1.8006 76.0089 2.41818 75.0991 3.26945C74.1723 4.12072 73.5039 5.11373 73.0936 6.24872C72.6833 7.36703 72.4781 8.51869 72.4781 9.70371C72.4781 10.8888 72.6833 12.0488 73.0936 13.1838C73.5039 14.302 74.1723 15.2868 75.0991 16.1381C76.0089 16.9894 77.0612 17.6068 78.257 17.9907C79.4685 18.3746 80.709 18.5666 81.9749 18.5666C82.9028 18.5666 83.7765 18.4081 84.597 18.0909C85.4345 17.7738 86.1573 17.3398 86.7642 16.789C87.3881 16.2383 87.8781 15.5957 88.2353 14.8612C88.6093 14.1101 88.7963 13.3007 88.7963 12.4327Z" fill="#614E70"/>
<path d="M110.324 18.2943V17.1176H107.809V2.29618H110.324V1.11951C108.843 1.16953 107.372 1.19454 105.91 1.19454C104.429 1.19454 102.958 1.16953 101.496 1.11951V2.29618H104.01V8.78058H97.5099V2.29618H100.025V1.11951C98.544 1.16953 97.0731 1.19454 95.6106 1.19454C94.13 1.19454 92.659 1.16953 91.1965 1.11951V2.29618H93.7112V17.1176H91.1965V18.2943C92.659 18.2443 94.13 18.2192 95.6106 18.2192C97.0731 18.2192 98.544 18.2443 100.025 18.2943V17.1176H97.5099V9.95726H104.01V17.1176H101.496V18.2943C102.958 18.2443 104.429 18.2192 105.91 18.2192C107.372 18.2192 108.843 18.2443 110.324 18.2943Z" fill="#614E70"/>
<path d="M130.472 18.2941V17.1173H128.225L122.259 1.24441C122.205 1.11089 122.117 1.00238 121.991 0.918885C121.867 0.83551 121.733 0.793701 121.591 0.793701H121.108C120.948 0.793701 120.805 0.83551 120.681 0.918885C120.555 1.00238 120.466 1.11089 120.413 1.24441L114.581 16.7919C114.545 16.8753 114.457 16.9338 114.313 16.9671C114.189 17.0005 114.063 17.0256 113.939 17.0423C113.636 17.0923 113.342 17.1173 113.056 17.1173C112.789 17.1173 112.503 17.1173 112.2 17.1173V18.2941C113.11 18.244 114.02 18.219 114.929 18.219H114.956H115.33C116.275 18.219 117.221 18.244 118.166 18.2941V17.1173C117.916 17.1173 117.667 17.109 117.417 17.0923C117.167 17.0756 116.917 17.0506 116.667 17.0173C116.525 16.9838 116.383 16.9588 116.24 16.9421C116.097 16.9088 116.044 16.8586 116.079 16.7919L117.23 13.7375H123.088L124.372 17.1173H122.152V18.2941C123.614 18.244 125.077 18.219 126.539 18.219H126.566C127.886 18.219 129.188 18.244 130.472 18.2941ZM122.66 12.5607H117.685L120.172 5.92622L122.66 12.5607Z" fill="#614E70"/>
<path d="M141.28 18.2943V17.1176H138.633V2.29618H141.28V1.11951C139.783 1.16953 138.276 1.19454 136.76 1.19454C135.243 1.19454 133.728 1.16953 132.212 1.11951V2.29618H134.861V17.1176H132.212V18.2943C133.728 18.2443 135.243 18.2192 136.76 18.2192C138.276 18.2192 139.783 18.2443 141.28 18.2943Z" fill="#614E70"/>
<path d="M162.106 2.29618V1.11951C161.035 1.16953 159.957 1.19454 158.868 1.19454C157.799 1.19454 156.729 1.16953 155.658 1.11951V2.29618C155.961 2.29618 156.274 2.29618 156.595 2.29618C156.916 2.29618 157.237 2.32119 157.558 2.37122C157.7 2.38802 157.834 2.41303 157.959 2.44638C158.102 2.47973 158.173 2.53821 158.173 2.62159V12.6862L149.318 1.29472C149.247 1.17787 149.122 1.11951 148.943 1.11951H142.978V2.29618H145.493V16.7922C145.493 16.8756 145.422 16.9341 145.278 16.9674C145.154 16.9841 145.02 17.0091 144.878 17.0424C144.574 17.0759 144.262 17.1009 143.941 17.1176C143.62 17.1176 143.299 17.1176 142.978 17.1176V18.2943C144.047 18.2443 145.127 18.2192 146.215 18.2192C147.285 18.2192 148.355 18.2443 149.426 18.2943V17.1176C149.122 17.1176 148.81 17.1176 148.489 17.1176C148.167 17.1009 147.856 17.0759 147.553 17.0424C147.409 17.0091 147.267 16.9841 147.125 16.9674C146.982 16.9341 146.911 16.8756 146.911 16.7922V3.52288L158.28 18.1191C158.37 18.2359 158.494 18.2943 158.655 18.2943H159.109C159.252 18.2943 159.368 18.2526 159.457 18.1691C159.546 18.0857 159.591 17.9772 159.591 17.8437V2.62159C159.591 2.53821 159.654 2.47973 159.778 2.44638C159.922 2.41303 160.064 2.38802 160.206 2.37122C160.527 2.32119 160.84 2.29618 161.143 2.29618C161.464 2.29618 161.785 2.29618 162.106 2.29618Z" fill="#614E70"/>
</g>
</svg>
