<svg width="143" height="47" viewBox="0 0 143 47" fill="none" xmlns="http://www.w3.org/2000/svg">
<mask id="mask0_2007_438" style="mask-type:luminance" maskUnits="userSpaceOnUse" x="0" y="0" width="143" height="47">
<path d="M142.665 0.407227H0.364136V46.7178H142.665V0.407227Z" fill="white"/>
</mask>
<g mask="url(#mask0_2007_438)">
<path fill-rule="evenodd" clip-rule="evenodd" d="M-0.762921 6.86439V13.0477H1.78923H4.34139V6.86439V0.68103H1.78923H-0.762921V6.86439ZM12.1475 19.0914C8.06163 23.1918 7.91688 23.359 7.42213 24.5786C6.8043 26.0972 6.82476 28.1564 7.47155 29.7147C7.94216 30.8488 8.28974 31.2476 12.2743 35.2279L16.0669 39.0173L17.8009 37.2831L19.5349 35.5489L15.7797 31.7782C11.7964 27.7768 11.8398 27.8287 11.8398 27.09C11.8398 26.3513 11.7964 26.4031 15.7797 22.4019L19.5337 18.6315L17.8214 16.9167C16.879 15.9737 16.0898 15.2019 16.0657 15.2019C16.0427 15.2019 14.2797 16.9523 12.1475 19.0914ZM131.048 15.9284C127.747 16.5843 125.187 18.9764 124.332 22.2066C124.152 22.8822 124.127 23.1438 124.124 24.2577C124.123 25.3895 124.147 25.6245 124.335 26.332C124.819 28.1578 125.961 29.911 127.34 30.9476C128.027 31.4642 130.211 32.7072 130.288 32.6256C130.365 32.5445 132.599 28.7127 132.656 28.5645C132.679 28.5042 132.266 28.2228 131.591 27.8378C129.696 26.7569 129.09 25.9538 129.027 24.4445C129.002 23.8071 129.027 23.5833 129.172 23.1479C130.021 20.5946 133.264 19.8823 135.15 21.8347C135.342 22.0336 135.661 22.5343 135.894 23.001L136.302 23.8188H138.92C140.359 23.8188 141.537 23.8041 141.537 23.7862C141.537 23.7682 141.353 23.2925 141.129 22.729C140.158 20.2968 139.564 19.2976 138.454 18.2311C137.631 17.4409 137.1 17.0739 136.09 16.597C134.915 16.0425 134.295 15.9084 132.763 15.8765C132.039 15.8616 131.268 15.8849 131.048 15.9284ZM106.76 16.0132C101.669 16.3996 97.4634 20.301 96.667 25.3745C96.5017 26.4298 96.5428 28.3794 96.7491 29.324C97.6819 33.5829 100.771 36.8183 104.906 37.8685C108.656 38.8206 112.595 37.7818 115.364 35.111C116.713 33.8094 117.637 32.3637 118.198 30.6765C118.668 29.2637 118.764 28.6548 118.763 27.09C118.763 25.5128 118.651 24.8019 118.188 23.4598C117.612 21.7841 116.721 20.3899 115.422 19.1277C113.095 16.8697 110.024 15.7654 106.76 16.0132ZM-0.743624 27.1099L-0.723076 38.2201L1.80853 38.2411L4.34139 38.2621V27.131V15.9998H1.78923H-0.764099L-0.743624 27.1099ZM34.7321 16.1281C33.2864 16.3898 31.5898 17.0924 30.3445 17.944C29.5529 18.4863 28.3752 19.6275 27.7404 20.4679C27.113 21.2999 26.2707 22.9737 25.9956 23.9384C25.5744 25.4109 25.56 25.6883 25.56 32.2162L25.5588 38.26H28.1073H30.6571L30.6848 32.2162C30.7101 26.8677 30.7282 26.1151 30.8477 25.6744C31.4764 23.3322 33.3287 21.6229 35.6902 21.2043L36.3756 21.0827L37.6293 18.6306L38.8819 16.1784L38.6623 16.1235C38.5404 16.0933 37.7597 16.0544 36.9258 16.0371C35.7927 16.0135 35.2389 16.0365 34.7321 16.1281ZM50.4855 16.128C49.0121 16.3909 47.4567 17.0247 46.139 17.8985C45.7565 18.1521 45.0747 18.7317 44.5775 19.2283C42.9304 20.8702 41.971 22.6522 41.463 25.0155C41.2579 25.9694 41.2579 28.2106 41.463 29.1643C41.9409 31.386 42.8797 33.1968 44.3627 34.756C46.0026 36.4795 48.2145 37.66 50.5446 38.0555C51.5341 38.2232 53.2114 38.2272 54.225 38.064C58.329 37.4032 61.7597 34.4316 63.0327 30.4338C63.3791 29.3456 63.5275 28.3436 63.5275 27.09C63.5275 24.8186 62.9362 22.8369 61.7041 20.9772C60.8172 19.6391 59.8663 18.6937 58.4895 17.7833C57.2164 16.9415 55.7371 16.3607 54.2552 16.1201C53.3285 15.97 51.3483 15.9742 50.4855 16.128ZM78.1648 16.1114C74.0101 16.9028 70.7725 19.6939 69.4705 23.6065C68.9106 25.2884 68.913 25.2377 68.9118 32.0766V38.2201H71.4639H74.0161L74.0571 32.0766L74.097 25.9331L74.2828 25.3745C74.9549 23.3509 76.52 21.8449 78.5232 21.2944C79.2375 21.0979 80.8387 21.0957 81.5519 21.2901C83.5599 21.8377 85.1105 23.3303 85.7935 25.3745L85.9793 25.9331L86.0203 32.0766L86.0613 38.2201H88.6136H91.1657V32.0766C91.1657 26.5049 91.1525 25.8626 91.0233 25.1752C90.2921 21.3008 87.7109 18.1659 84.0571 16.7138C82.7792 16.2062 81.9888 16.0638 80.2777 16.0331C79.2061 16.0138 78.5497 16.0382 78.1648 16.1114ZM53.6193 21.2331C55.3956 21.6001 56.9571 22.8013 57.745 24.4065C58.2458 25.4272 58.3785 25.985 58.3785 27.09C58.3785 28.1957 58.2458 28.7527 57.7438 29.7765C56.9534 31.3862 55.4028 32.5785 53.6193 32.9469C51.6343 33.357 49.6867 32.7709 48.2085 31.3186C46.9004 30.0343 46.291 28.3236 46.4708 26.4524C46.6024 25.1018 47.2057 23.8547 48.2097 22.8613C49.6734 21.414 51.6355 20.8232 53.6193 21.2331ZM108.783 21.2212C110.022 21.4582 110.98 21.9751 111.904 22.9041C112.632 23.6345 112.992 24.1975 113.312 25.1012C113.771 26.3974 113.771 27.7825 113.312 29.0787C112.988 29.9965 112.629 30.5519 111.864 31.3205C110.789 32.4029 109.526 32.9676 107.993 33.0513C105.171 33.2055 102.664 31.3963 101.881 28.6413C101.628 27.7491 101.629 26.4293 101.882 25.5342C102.184 24.4737 102.632 23.7194 103.45 22.8981C104.001 22.3439 104.315 22.1013 104.805 21.8508C106.189 21.1442 107.389 20.9543 108.783 21.2212ZM134.075 32.0083C133.419 33.1323 132.874 34.0921 132.863 34.1412C132.851 34.1905 133.36 34.5273 133.993 34.8898C135.332 35.6579 135.759 36.0499 136.178 36.897C136.466 37.4808 136.472 37.5137 136.472 38.4152C136.472 39.2869 136.458 39.3664 136.217 39.8762C135.53 41.3278 133.946 42.1835 132.421 41.9263C131.148 41.7116 130.223 40.9624 129.594 39.6361L129.243 38.8983H126.617H123.99L124.179 39.397C125.178 42.0449 126.009 43.4934 127.137 44.5486C131.025 48.1864 137.173 47.4476 140.077 42.9936C140.594 42.1996 140.931 41.4258 141.198 40.4184C141.368 39.7711 141.399 39.4758 141.402 38.4595C141.407 37.1168 141.309 36.5508 140.871 35.3855C140.434 34.2194 139.933 33.4646 138.945 32.4751C138.054 31.5834 137.937 31.5027 135.63 30.1743L135.266 29.9649L134.075 32.0083Z" fill="#614E70"/>
</g>
</svg>
