<svg width="149" height="54" viewBox="0 0 149 54" fill="none" xmlns="http://www.w3.org/2000/svg">
<path d="M16.8662 0.281897C16.9366 0.533834 17.054 1.06284 17.1245 1.4912C17.2184 1.89418 17.4531 2.59961 17.6644 3.05309C18.0634 3.85917 18.0634 3.85917 16.608 7.10898C15.8099 8.87242 15.1526 10.51 15.1526 10.7114C15.1526 11.0137 15.1057 11.0137 14.9414 10.7114C14.7771 10.4343 14.6597 10.6359 14.425 11.4168C14.1433 12.4244 14.1667 12.5001 14.8006 13.2055C15.7394 14.2635 16.8662 14.2635 17.2653 13.2306C17.6408 12.223 18.0868 11.845 19.6126 11.2909C21.3027 10.661 22.6642 9.27552 22.6642 8.19225C22.6642 7.73876 22.5468 7.15936 22.4058 6.85704C22.1947 6.42881 22.2182 6.37842 22.5702 6.45395C23.0865 6.55472 24.0021 8.19225 24.2135 9.35104C24.4482 10.7366 23.3214 13.004 21.7487 14.2383C19.6126 15.9513 19.1432 16.5056 18.1807 18.5462C17.5469 19.9066 17.2418 20.9393 17.1245 22.1235C17.0306 23.0303 16.9132 23.786 16.8662 23.786C16.8193 23.786 15.8568 23.0051 14.7302 22.0227C13.2983 20.7883 12.3124 19.6798 11.3969 18.269L10.1059 16.2536H7.9933L0.294067 24.8189L0.951319 27.2121C1.67899 29.8325 1.53815 29.731 3.34559 28.9001C4.23758 28.5223 4.23758 28.4718 3.39254 26.3557C3.13433 25.7006 2.80571 25.2975 2.57098 25.2975C1.98414 25.2975 2.38319 24.9702 3.32212 24.6679C3.79158 24.5166 5.03568 23.509 6.35018 22.1738C7.59426 20.9646 8.65056 19.9821 8.67403 20.0325C8.79141 20.1585 11.8664 26.3809 11.8664 26.4817C11.8664 26.532 11.6551 26.5572 11.3969 26.5572C11.1387 26.5572 10.458 26.809 9.87118 27.1114C9.02614 27.5648 8.79141 27.8167 8.67403 28.4971C8.48625 29.6307 8.83835 30.6131 10.3172 32.9814C11.3735 34.6441 11.6786 35.3739 12.0072 37.062L12.4063 39.1282L13.7207 39.4303C14.4485 39.5814 16.162 40.3378 17.5704 41.0676C20.0352 42.4028 20.1055 42.4282 21.1383 42.1515C22.3121 41.824 22.2885 41.9243 21.9363 39.7324L21.6782 38.1459L20.0116 37.5912C18.6502 37.1635 18.2276 37.1127 17.6644 37.3399C16.9835 37.6166 16.8662 37.5405 15.3874 36.2814C13.8382 34.9208 13.5096 34.342 12.1716 30.6385C11.9368 30.009 13.2748 30.3606 17.6174 32.0994C20.0352 33.0817 22.0537 33.8382 22.0773 33.8128C22.0773 33.762 22.2416 32.88 22.3825 31.848C22.5468 30.7388 22.9692 29.3033 23.4154 28.3711C24.2837 26.5067 26.232 24.2899 27.6639 23.5595C30.5981 22.0477 35.9266 22.2243 39.6353 23.9876L40.6446 24.4663L41.9592 23.2571L40.8794 22.2493L39.7997 21.2166L40.316 20.4607C40.7855 19.7301 40.7855 19.6042 40.5039 18.0675C40.3397 17.1858 40.2692 16.3797 40.3629 16.304C40.4334 16.2285 40.8794 16.4552 41.3725 16.8079C42.2643 17.4881 42.8746 17.4881 42.3113 16.7828C42.1469 16.5308 40.5741 14.5658 38.8373 12.3741C37.1001 10.2076 35.5981 8.09147 35.4571 7.71363C35.3397 7.33566 35.0345 6.75626 34.8232 6.42881C34.2835 5.62261 34.4243 5.52184 35.3866 6.02571C36.5135 6.65549 35.9499 6.15174 33.814 4.64012C32.7811 3.90956 31.6309 3.0027 31.2319 2.62486C30.7625 2.14612 30.0816 1.81866 29.1193 1.61711C26.9598 1.16362 26.772 1.0881 27.1474 0.836162C27.3353 0.710254 27.8518 0.609474 28.2977 0.58422C28.9551 0.58422 28.8377 0.508698 27.6639 0.231507C26.6546 0.00482344 25.9504 -0.0455603 25.4339 0.130735C24.0491 0.533835 20.2699 1.16362 19.7534 1.03771C19.4953 0.987326 18.6972 0.685002 18.0164 0.382677C16.8662 -0.0959433 16.7724 -0.121082 16.8662 0.281897Z" fill="#614E70"/>
<path d="M40.1151 1.21867C40.1151 1.26048 40.358 1.35788 40.6551 1.44137C40.952 1.52487 43.7352 2.4438 43.7352 2.41601C43.7352 2.3742 40.952 1.38566 40.6551 1.30217C40.358 1.21867 40.1151 1.19088 40.1151 1.21867Z" fill="#614E70"/>
<path d="M9.52067 1.49644L8.74097 1.75707L10.6346 2.66948C11.6816 3.1649 13.1519 3.84265 13.9316 4.18159L15.3351 4.83325L15.6692 3.92084C15.8474 3.42554 15.9812 2.90414 15.9812 2.77376C15.9812 2.53923 11.392 1.15749 10.6791 1.20969C10.4786 1.20969 9.94395 1.34008 9.52067 1.49644Z" fill="#614E70"/>
<path d="M41.7752 1.57161C44.6702 3.86502 45.5933 4.69165 47.0909 6.2916C49.5865 8.93157 51.5829 11.9449 53.3047 15.6249C54.8521 18.9583 55.0767 18.9583 53.6044 15.6249C51.1088 9.99828 46.3672 4.26499 41.9 1.54503C41.1512 1.09166 41.1513 1.09166 41.7752 1.57161Z" fill="#614E70"/>
<path d="M65.3576 6.28004C64.5032 6.48848 64.249 6.67082 64.249 7.03561C64.249 7.45237 64.4338 7.53054 65.2884 7.53054H66.3274V13.1056C66.3274 18.6024 66.3274 18.7065 65.8193 19.0973C65.5422 19.3317 65.0574 19.5142 64.7802 19.5142C64.3877 19.5142 64.249 19.6704 64.249 20.0612C64.249 20.5822 64.3184 20.5822 69.3988 20.5041L74.5717 20.426L75.6801 19.6444C77.2274 18.5763 78.2436 17.0132 78.5667 15.1636C79.2133 11.6987 77.8971 8.36418 75.2413 6.80108C74.1098 6.1238 73.902 6.09771 70.2533 6.04563C68.1518 6.01953 65.9579 6.12381 65.3576 6.28004ZM72.7243 7.29613C73.6018 7.6608 74.5717 8.75495 75.172 10.0055C75.9342 11.5945 75.8879 15.2677 75.1027 17.0393C74.1791 19.1234 72.1931 20.0091 70.3688 19.1234C69.8837 18.915 69.468 18.4721 69.3296 18.0813C69.0755 17.3258 69.0063 7.45236 69.2602 7.19184C69.4912 6.90535 72.0082 6.98353 72.7243 7.29613Z" fill="#614E70"/>
<path d="M90.8416 6.40738C90.8868 6.59033 91.2715 6.90377 91.7013 7.06049L92.4932 7.34796V19.3398L91.656 19.575C91.1583 19.7056 90.7964 19.9668 90.7964 20.1759C90.7964 20.4632 91.4298 20.5416 94.2129 20.5416C96.7243 20.5416 97.6067 20.4632 97.5388 20.2281C97.4256 19.8885 97.0862 19.6534 96.1133 19.3137L95.4346 19.1047L95.2989 13.4876H96.7695C98.6702 13.4876 99.2812 13.775 99.5978 14.7939C100.05 16.3614 100.412 15.5777 100.48 12.8867C100.548 10.4831 100.526 10.3525 100.073 10.3525C99.7334 10.3525 99.6204 10.5353 99.6204 10.9795C99.6204 12.0244 98.8285 12.4425 96.9505 12.4425H95.2989L95.4346 7.34796H99.9598L100.412 8.31463C100.661 8.88943 101.046 9.30739 101.272 9.30739C101.589 9.30739 101.657 9.04615 101.657 7.6614V6.04163H96.2265C91.7465 6.04163 90.7964 6.09382 90.8416 6.40738Z" fill="#614E70"/>
<path d="M104.205 6.61281C103.713 7.44765 104.631 8.4363 105.877 8.45829C107.253 8.45829 108.269 7.05228 107.319 6.39313C107.024 6.19545 106.27 6.04163 105.647 6.04163C104.729 6.04163 104.467 6.15147 104.205 6.61281Z" fill="#614E70"/>
<path d="M105.56 11.361C105.216 11.6415 104.529 11.922 104.027 12.024C102.916 12.228 102.863 12.7635 103.921 12.9676L104.714 13.1206V16.3083C104.714 19.649 104.661 19.7766 103.366 19.7766C103.101 19.7766 102.863 19.955 102.863 20.159C102.863 20.4651 103.392 20.5416 105.93 20.5416C108.256 20.5416 108.97 20.4651 108.891 20.21C108.812 20.057 108.415 19.8531 107.992 19.7766L107.225 19.649L107.305 15.8747C107.357 13.7836 107.331 11.8199 107.252 11.463C107.04 10.7234 106.406 10.6724 105.56 11.361Z" fill="#614E70"/>
<path d="M121.929 11.3545C121.649 11.6352 121.025 11.9925 120.574 12.1456C119.629 12.5029 119.499 12.8857 120.209 13.2685C120.832 13.6003 121.047 14.7487 120.983 17.3007C120.918 19.2912 120.897 19.3933 120.338 19.7251C119.263 20.312 119.693 20.5417 121.886 20.5417C124.079 20.5417 124.551 20.2865 123.498 19.7251C122.939 19.4443 122.939 19.4188 123.004 16.484L123.068 13.5237L124.079 12.9367C124.895 12.4519 125.175 12.4008 125.541 12.6305C126.229 13.0642 126.401 13.932 126.401 16.8668V19.5464L125.756 19.8016C124.573 20.312 125.089 20.5417 127.26 20.5417C128.981 20.5417 129.411 20.4651 129.411 20.1844C129.411 19.9803 129.196 19.7761 128.938 19.7251C128.465 19.6485 128.443 19.5464 128.335 16.2033C128.272 14.3148 128.142 12.605 128.057 12.4263C127.389 11.2269 124.895 11.0227 123.649 12.0946L122.961 12.656V11.7628C122.961 10.7165 122.681 10.6144 121.929 11.3545Z" fill="#614E70"/>
<path d="M84.445 11.0379C82.4111 11.6302 81.1428 13.4589 81.1428 15.8026C81.1428 18.6099 82.8656 20.5416 85.3782 20.5416C86.8141 20.5416 87.6514 20.2583 88.7521 19.331C89.3744 18.8417 89.47 18.6099 89.2785 18.3524C89.0632 18.0691 88.8479 18.0948 88.0104 18.507C86.7421 19.0993 86.2395 19.125 85.2347 18.5327C84.2537 17.966 83.5357 16.6525 83.5357 15.442V14.5663L86.5748 14.7724L89.5897 14.9527L89.4222 14.077C89.0154 11.8362 86.6226 10.3682 84.445 11.0379ZM86.7181 12.3515C87.2208 12.9953 87.2446 13.7421 86.7421 13.9482C86.5269 14.0255 85.7131 14.1027 84.9235 14.1027H83.4879L83.6314 13.3816C83.7272 12.9953 84.0622 12.4287 84.4212 12.0939C85.1388 11.3985 86.0483 11.5015 86.7181 12.3515Z" fill="#614E70"/>
<path d="M134.521 10.9896C132.799 11.4802 131.62 12.5388 130.983 14.1656C129.663 17.6256 132.069 20.8533 135.748 20.5176C137.093 20.3884 137.918 19.872 138.743 18.6843C139.097 18.1679 139.144 17.9096 138.956 17.703C138.743 17.4707 138.484 17.574 137.965 18.0645C136.55 19.3814 135.111 19.3039 133.955 17.8579C132.021 15.4566 133.201 11.506 135.748 11.7642C135.912 11.7642 136.314 12.2548 136.644 12.8487C137.187 13.7525 137.352 13.8815 138.012 13.8041C138.507 13.7525 138.79 13.5717 138.837 13.2618C138.979 12.4098 138.672 11.6351 138.083 11.3253C137.257 10.9379 135.371 10.7314 134.521 10.9896Z" fill="#614E70"/>
<path d="M143.579 10.981C141.567 11.6011 140.428 13.1515 140.283 15.4771C140.113 18.4745 141.834 20.5157 144.525 20.5416C145.979 20.5416 146.827 20.2574 147.942 19.3271C148.548 18.8362 148.67 18.6036 148.475 18.3452C148.257 18.061 148.014 18.0868 147.094 18.5261C145.736 19.172 144.669 18.9913 143.821 18.0092C142.973 17.0532 142.658 16.3298 142.658 15.3737V14.5469L148.718 14.9085V14.2884C148.718 13.4357 147.797 12.0146 146.899 11.4719C146.027 10.9551 144.476 10.7226 143.579 10.981ZM145.688 12.1438C146.367 12.8673 146.488 13.6942 145.906 13.9266C145.3 14.1851 142.949 14.1075 142.78 13.8233C142.585 13.4874 143.288 12.092 143.797 11.782C144.5 11.3428 145.058 11.4461 145.688 12.1438Z" fill="#614E70"/>
<path d="M112.244 11.4343C111.047 12.1307 110.104 13.3628 110.104 14.2469C110.104 14.9968 110.219 15.0236 111.346 14.4879C111.922 14.1932 112.221 13.8718 112.313 13.3361C112.543 12.2379 113.073 11.6754 113.924 11.6754C114.615 11.6754 114.707 11.7826 114.937 12.7735C115.374 14.6753 115.444 14.595 112.336 16.2289C111.139 16.8717 110.679 17.2736 110.403 17.9433C110.104 18.72 110.08 18.9342 110.357 19.6039C110.656 20.3271 110.794 20.3807 112.198 20.4611C113.464 20.5146 113.809 20.4343 114.5 19.8986L115.328 19.2558L115.812 19.8718C116.479 20.7825 117.791 20.7557 118.297 19.8449C118.505 19.47 118.597 18.9879 118.528 18.7468C118.39 18.3182 118.344 18.3182 117.952 18.7468C117.745 18.9879 117.469 19.0949 117.4 18.9879C117.308 18.9075 117.239 17.5414 117.239 15.9611C117.239 12.6932 117.009 11.6219 116.18 11.1665C115.236 10.6843 113.326 10.8182 112.244 11.4343ZM115.098 17.22C114.96 18.6396 114.408 19.4432 113.533 19.4432C113.027 19.4432 112.842 19.2825 112.727 18.7735C112.658 18.3986 112.635 17.9165 112.705 17.7021C112.912 17.1396 114.73 15.6664 114.983 15.8539C115.121 15.9611 115.167 16.5503 115.098 17.22Z" fill="#614E70"/>
<path d="M54.0814 15.7781C54.0814 15.9288 55.2929 19.6414 55.4353 20.0433C55.9818 21.5252 56.5994 25.7449 56.5994 27.9301C56.5994 31.6474 55.6016 35.6663 53.9625 38.6303C53.511 39.4339 52.1806 41.1171 51.0167 42.3725C49.2587 44.231 48.4746 44.8593 46.8592 45.7136C43.8659 47.2699 41.9892 47.7726 38.5919 47.9236C33.5318 48.175 29.018 46.9944 24.6941 44.3312L23.2213 43.4274L23.9102 44.2056C24.8606 45.2617 27.5925 47.2457 29.5168 48.2499C38.093 52.821 47.3818 51.0133 52.6797 43.7295C56.837 38.002 58.12 29.3612 56.0055 21.2489C55.4829 19.2145 54.0814 15.1251 54.0814 15.7781Z" fill="#614E70"/>
<path d="M71.2599 32.9064C65.6059 34.963 65.0108 43.8998 70.3444 46.5413C71.3744 47.0488 71.9239 47.1249 74.0757 47.1249C77.3034 47.1249 78.1733 46.7696 78.4021 45.3474C78.4938 44.7892 78.631 44.104 78.6997 43.773C78.9057 42.7833 78.0129 43.1132 76.7997 44.4593C75.4721 45.931 74.2132 46.4397 72.8395 46.0072C71.5806 45.6265 70.8938 44.9414 70.2986 43.4431C69.8637 42.3266 69.8178 41.7671 69.8866 39.6864C69.9783 36.7912 70.5961 35.0645 71.8781 34.2271C73.3661 33.2629 75.7237 33.8973 77.0057 35.5986C77.6238 36.3852 78.5395 36.639 78.5395 35.9792C78.5395 35.7762 78.4021 35.0645 78.2648 34.4301C77.8984 32.9584 77.578 32.8049 74.5335 32.6527C72.931 32.5765 71.9467 32.6527 71.2599 32.9064Z" fill="#614E70"/>
<path d="M111.774 32.9657C110.844 33.8817 111.42 36.25 112.55 36.25C113.015 36.25 113.724 35.0501 113.724 34.2285C113.724 32.9029 112.572 32.1441 111.774 32.9657Z" fill="#614E70"/>
<path d="M142.775 32.8436C142.554 32.9971 141.957 33.2786 141.47 33.4321C140.43 33.7897 140.209 34.1994 140.961 34.4301C141.449 34.5582 141.515 34.7371 141.648 36.529C141.714 37.6286 141.781 40.061 141.781 42.0064C141.781 45.6399 141.648 46.2295 140.807 46.4084C140.563 46.4337 140.342 46.6391 140.276 46.7926C140.209 47.0476 140.785 47.1249 142.642 47.1249C144.633 47.1249 145.098 47.0476 145.098 46.766C145.098 46.5364 144.832 46.3564 144.5 46.3056L143.881 46.2295L143.77 39.4725C143.704 35.3001 143.571 32.6889 143.439 32.6382C143.329 32.5874 143.019 32.6889 142.775 32.8436Z" fill="#614E70"/>
<path d="M120.89 37.2371C120.451 37.7796 119.728 38.3971 119.314 38.5953C118.359 39.0641 118.281 39.7057 119.185 39.7057H119.831V42.8643C119.831 45.8501 119.857 46.0724 120.425 46.5666C121.252 47.3073 123.111 47.3073 124.066 46.5908C124.635 46.1715 124.686 45.9987 124.455 45.7268C124.247 45.4803 124.066 45.4308 123.86 45.629C123.473 45.9987 122.492 45.925 122.311 45.4803C122.233 45.258 122.156 43.8757 122.156 42.3955V39.7057H123.318C124.299 39.7057 124.48 39.6308 124.48 39.2357C124.48 38.8418 124.274 38.7427 123.395 38.669C122.388 38.5953 122.285 38.5457 122.362 37.9778C122.44 37.2129 122.207 36.2499 121.923 36.2499C121.819 36.2499 121.355 36.6945 120.89 37.2371Z" fill="#614E70"/>
<path d="M97.4091 38.0709C96.8272 38.408 96.2019 38.6944 96.0727 38.6944C95.5984 38.6944 95.771 39.3711 96.3098 39.684C96.8056 39.9438 96.8272 40.0743 96.9781 43.9507C97.0426 46.1365 97.0859 48.8166 97.0426 49.8836C96.9781 51.8084 96.9565 51.835 96.2883 52.2253C95.0595 52.9274 95.4691 53.1352 98.0558 53.1618C100.017 53.1884 100.535 53.1098 100.535 52.85C100.535 52.641 100.341 52.4851 100.125 52.4851C99.2628 52.4851 99.0258 51.8084 99.0258 49.3628V47.0476L99.8232 47.4633C102.41 48.7646 105.277 46.267 105.277 42.7278C105.277 39.2152 102.863 37.3157 99.9958 38.5651C99.5215 38.7729 99.112 38.9554 99.0904 38.9554C99.0473 38.9554 99.0258 38.5905 99.0258 38.1748C99.0258 37.2372 98.8317 37.2372 97.4091 38.0709ZM101.612 40.0743C102.949 40.8803 103.574 43.6643 102.798 45.4599C102.389 46.4229 101.871 46.7612 100.772 46.7612C99.2845 46.7612 99.0258 46.2151 99.0258 42.9876C99.0258 40.3861 99.0473 40.2302 99.5215 39.9958C100.211 39.6574 100.987 39.684 101.612 40.0743Z" fill="#614E70"/>
<path d="M112.188 38.0068C111.837 38.2618 111.2 38.5663 110.827 38.6424C109.95 38.8454 109.884 39.429 110.718 39.5559C111.31 39.632 111.31 39.6586 111.42 41.9182C111.486 43.1628 111.486 44.6357 111.442 45.1698C111.376 46.0072 111.288 46.1594 110.74 46.2863C110.389 46.3624 110.104 46.592 110.104 46.7696C110.104 47.0487 110.608 47.1249 112.517 47.1249C114.469 47.1249 114.93 47.0487 114.93 46.7696C114.93 46.5412 114.667 46.3624 114.338 46.3117L113.723 46.2355L113.658 41.842C113.592 36.9918 113.592 36.9664 112.188 38.0068Z" fill="#614E70"/>
<path d="M85.6825 39.1596C84.4938 39.771 83.5562 40.8513 83.5562 41.627C83.5562 42.2844 83.5335 42.2844 84.6765 41.8143C85.3625 41.5328 85.614 41.2742 85.7282 40.7812C85.9798 39.6538 87.3516 38.8551 87.9919 39.4895C88.7006 40.2411 88.6091 42.4258 87.8546 42.4258C87.7403 42.4258 86.8945 42.7786 85.9569 43.2245C84.1051 44.0945 83.4191 44.9633 83.6935 46.0677C83.8764 46.8664 84.4251 47.125 85.8885 47.125C87.0315 47.125 87.9688 46.7492 88.4032 46.0906C88.4948 45.9505 88.7919 46.1148 89.1349 46.4906C89.5009 46.8893 89.9352 47.125 90.3469 47.125C91.1241 47.125 91.3985 46.9365 91.7643 46.2562C92.1072 45.5747 92.0843 45.2448 91.6729 45.2448C91.4899 45.2448 91.3299 45.339 91.3299 45.4804C91.3299 45.5976 91.1698 45.7148 90.9869 45.7148C90.7125 45.7148 90.644 45.269 90.644 43.1544C90.644 39.2768 90.3009 38.6896 88.0146 38.6666C87.0772 38.6666 86.3456 38.831 85.6825 39.1596ZM88.4262 44.7047C88.0604 46.2791 86.3228 46.725 86.1169 45.269C86.0256 44.6575 86.5515 43.976 87.5575 43.3417C88.2204 42.8958 88.2432 42.8958 88.4491 43.3417C88.5635 43.6003 88.5406 44.1875 88.4262 44.7047Z" fill="#614E70"/>
<path d="M130.508 39.0424C129.286 39.5825 128.204 40.757 128.204 41.5328C128.204 42.3085 128.181 42.2844 129.309 41.8385C130.024 41.5328 130.231 41.2984 130.416 40.6169C130.692 39.4895 131.775 38.9482 132.559 39.5125C132.996 39.8182 133.066 40.0768 132.996 41.0628L132.927 42.2385L131.314 42.8958C128.619 43.976 127.651 45.269 128.572 46.6078C128.873 47.0549 129.126 47.125 130.393 47.125C131.637 47.125 131.959 47.0307 132.559 46.5135L133.272 45.9033L133.756 46.5135C134.079 46.9365 134.447 47.125 134.954 47.125C135.83 47.125 136.107 46.9606 136.475 46.209C136.705 45.7861 136.705 45.5976 136.498 45.3862C136.291 45.1977 136.175 45.1977 136.107 45.4103C136.038 45.5747 135.876 45.7148 135.692 45.7148C135.484 45.7148 135.369 44.9633 135.301 42.7544C135.208 39.8653 135.185 39.771 134.563 39.2309C134.056 38.7838 133.687 38.6666 132.628 38.6666C131.913 38.6896 130.946 38.8551 130.508 39.0424ZM132.559 45.7861C132.281 46.0205 131.775 46.1849 131.452 46.1377C130.946 46.0677 130.854 45.9263 130.784 45.1977C130.715 44.376 130.784 44.2588 131.822 43.6003L132.927 42.8728L132.996 44.1174C133.066 45.1747 132.996 45.4333 132.559 45.7861Z" fill="#614E70"/>
</svg>
