<svg width="153" height="38" viewBox="0 0 153 38" fill="none" xmlns="http://www.w3.org/2000/svg">
<mask id="mask0_2007_466" style="mask-type:luminance" maskUnits="userSpaceOnUse" x="0" y="0" width="153" height="38">
<path d="M152.901 0.059082H0.555542V37.1076H152.901V0.059082Z" fill="white"/>
</mask>
<g mask="url(#mask0_2007_466)">
<path d="M79.8549 37.5844C72.7885 37.5844 72.3493 33.6005 73.6549 29.0729H79.3626C78.8075 31.5717 78.4539 33.6718 81.5913 33.6718C83.5196 33.6718 84.7288 32.4779 85.1233 30.7017C86.1671 25.9928 74.7433 25.704 76.4713 17.9151C77.3788 13.8226 80.1433 10.5626 87.0963 10.5626C92.6531 10.5626 94.8807 12.9525 93.2891 18.4238H87.7334C88.1678 16.4667 88.2704 14.4745 85.9656 14.4745C84.1133 14.4745 82.8005 15.4534 82.3986 17.2628C81.2969 22.2252 92.8812 21.7902 91.0567 30.0141C89.5531 36.7881 84.2002 37.5844 79.8549 37.5844ZM113.218 37.1494L119.022 10.9976H133.911L133.018 15.0186H123.835L122.405 21.4664H130.869L129.977 25.4865H121.511L119.817 33.1304H129.303L128.411 37.1494H113.218ZM107.666 21.4664L109.99 10.9972H115.696L109.892 37.1518H104.188L106.776 25.4865H100.237L97.6489 37.1518H91.9412L97.7442 10.9972H103.452L101.129 21.4664H107.666ZM65.0982 18.4239L55.5315 37.1518H49.778L63.1397 10.9976H70.6599L72.2648 37.1518H66.2518L65.0982 18.4239ZM145.694 10.9955C153.175 10.9955 153.514 15.7774 151.705 23.9278C150.814 27.9515 149.414 37.1494 139.662 37.1494H130.367C132.302 28.4312 134.236 19.7127 136.17 10.9955H145.694ZM145.891 24.074C146.959 19.256 147.902 15.0184 143.933 15.0184H140.984C139.646 21.0556 138.306 27.0912 136.965 33.1304H139.724C143.202 33.1304 144.436 30.6292 145.891 24.074ZM48.4204 37.1518H42.7152L45.3023 25.4877H38.7632L36.1761 37.1518H30.4672L36.2726 10.9979H41.9779L39.655 21.4664H46.1941L48.5158 10.9979H54.221L48.4204 37.1518ZM19.1134 21.4664L20.5433 15.0185H14.0078L12.5755 21.4664H19.1134ZM31.955 15.0185H26.251L24.821 21.4664H30.5251L29.6334 25.4877H23.9293L21.3385 37.1518H15.6345L18.2216 25.4877H11.6837L9.09537 37.1518H3.39011L5.97726 25.4877H0.274414L1.16616 21.4664H6.86901L8.29896 15.0185H2.5949L3.48784 10.9979H9.19191L11.5136 0.535767H17.2189L14.8984 10.9979H21.4375L23.758 0.535767H29.4644L27.1439 10.9979H32.848L31.955 15.0185Z" fill="#614E70"/>
</g>
</svg>
