<svg width="171" height="51" viewBox="0 0 171 51" fill="none" xmlns="http://www.w3.org/2000/svg">
<mask id="mask0_2007_471" style="mask-type:luminance" maskUnits="userSpaceOnUse" x="0" y="0" width="171" height="51">
<path d="M170.246 0.714722H0.859375V50.4689H170.246V0.714722Z" fill="white"/>
</mask>
<g mask="url(#mask0_2007_471)">
<path d="M145.058 3.20522C144.191 4.31096 143.363 5.81147 143.205 6.56173C143.047 7.46991 142.732 7.90431 142.298 7.90431C141.588 7.90431 140.682 8.61505 140.682 9.16786C140.682 9.32579 141.233 9.48384 141.864 9.48384H143.047V14.4198C143.047 19.3557 143.047 19.3557 142.061 19.5925C140.089 20.0664 141.155 20.5403 144.231 20.5403C146.754 20.5403 147.385 20.4218 147.385 19.948C147.385 19.5925 147.03 19.3557 146.399 19.3557H145.413V9.48384H150.934V14.3802C150.934 18.9608 150.894 19.3162 150.146 19.5531C148.489 20.0664 149.475 20.5403 152.314 20.5403C155.232 20.5403 156.218 20.0664 154.286 19.5925L153.3 19.3557V1.19141H146.675L145.058 3.20522ZM150.934 5.73245V8.29919H145.413V6.60124C145.413 4.31097 146.005 3.63961 148.174 3.44217C149.159 3.36327 150.185 3.28424 150.461 3.24473C150.776 3.20522 150.934 3.91608 150.934 5.73245Z" fill="#614E70"/>
<path d="M57.159 2.02305C57.2772 2.33891 57.8287 2.61538 58.3813 2.69428L59.4457 2.8127V19.2395L58.2631 19.4765C57.632 19.6344 57.0793 19.9109 57.0793 20.1478C57.0793 20.7795 66.0704 20.6611 68.2787 19.9898C70.7234 19.2395 72.6566 17.739 73.7209 15.6857C74.4304 14.3431 74.6283 13.3954 74.6283 10.6707C74.6283 6.52458 73.6424 4.47126 70.9213 2.85221C69.2645 1.865 68.7517 1.82561 63.0742 1.66756C58.0266 1.50963 57.0009 1.58866 57.159 2.02305ZM68.87 4.07638C73.6811 7.27483 72.8533 16.9492 67.609 18.9236C66.3866 19.3974 64.0987 19.4765 62.7182 19.1211C61.812 18.8841 61.812 18.8446 61.812 11.1051C61.812 6.80104 61.9302 3.16819 62.1269 3.01014C62.758 2.33891 67.3326 3.04965 68.87 4.07638Z" fill="#614E70"/>
<path d="M0.296997 2.85316C0.335611 3.36646 0.848484 6.05162 1.43977 8.89471C2.26877 12.6855 2.70195 13.9887 3.09654 13.9097C3.41149 13.8306 7.98609 11.9352 13.2304 9.64496C18.5157 7.3942 22.9323 5.53833 23.0107 5.53833C23.0891 5.53833 23.1688 12.0933 23.1688 20.1486V34.7594H25.9285L26.0081 20.2277L26.1264 5.65674L36.1818 9.88192C41.7024 12.2117 46.277 14.1071 46.3156 14.0281C46.4339 13.9887 48.8002 2.45828 48.8002 2.10291C48.8002 2.0634 37.8772 1.98438 24.548 1.98438H0.296997V2.85316ZM19.1855 4.5116C19.107 4.59063 15.715 6.09113 11.6146 7.82859C4.55547 10.8691 4.24049 10.9481 4.04259 10.1584C3.33305 6.9598 3.05674 5.65674 3.05674 5.02502C3.05674 4.39318 3.68782 4.35368 11.22 4.35368C15.6764 4.35368 19.2639 4.4327 19.1855 4.5116ZM45.9223 5.22246C45.804 5.73576 45.4878 7.15725 45.2115 8.38141C44.9364 9.64496 44.5804 10.6717 44.3837 10.6717C44.0289 10.6717 29.7935 4.78807 29.5172 4.5116C29.4388 4.4327 33.1059 4.35368 37.7191 4.35368H46.1189L45.9223 5.22246Z" fill="#614E70"/>
<path d="M82.554 9.08825C81.766 9.95704 81.0553 10.6678 80.937 10.6678C80.8188 10.6678 80.7403 10.0359 80.7403 9.28569C80.7403 7.74567 80.5436 7.70627 78.3342 8.3775C76.6387 8.85141 76.1657 9.87801 77.7827 9.56215L78.7686 9.40422V14.3401C78.7686 19.2761 78.7686 19.2761 77.7827 19.513C75.7325 20.0263 76.8753 20.5396 80.149 20.5396C82.7905 20.5396 83.5 20.4212 83.5 19.9868C83.5 19.6314 83.027 19.355 82.239 19.2761L80.937 19.1575L80.7005 12.7606L82.1208 11.4971C82.9087 10.7862 84.0925 10.1545 84.7236 9.99655C85.6697 9.8385 85.8664 9.60167 85.8664 8.65386C85.8664 6.91651 84.329 7.11395 82.554 9.08825Z" fill="#614E70"/>
<path d="M89.3368 8.57965C87.4833 9.40893 87.0489 9.8038 87.0489 10.5541C87.0489 11.3043 87.2468 11.4622 88.2327 11.4622C89.1389 11.4622 89.4152 11.3043 89.4152 10.6725C89.4152 9.88272 90.7173 9.09294 91.9783 9.09294C92.9255 9.09294 93.7533 10.2776 93.7533 11.6597C93.7533 12.9627 93.7135 13.0023 90.6376 14.029C88.2725 14.8186 87.4435 15.253 87.0887 16.0428C86.3792 17.6223 86.5758 18.5305 87.7982 19.7941C89.2185 21.2157 90.3227 21.2552 92.0181 19.952C93.5952 18.7675 94.0296 18.728 94.3446 19.7941C94.5811 20.4654 94.8176 20.5838 95.8035 20.3864C96.4744 20.268 97.1441 20.1496 97.342 20.1496C97.5387 20.1496 97.6968 19.8731 97.6968 19.5572C97.6968 19.2413 97.342 18.9649 96.9474 18.9649C95.8831 18.9649 95.725 18.254 95.725 13.4762C95.725 10.633 95.567 9.01404 95.2122 8.54013C94.3844 7.395 91.8998 7.395 89.3368 8.57965ZM93.7533 15.7665C93.7533 17.7012 92.2944 19.0833 90.4409 18.8859C89.3766 18.7675 89.2185 18.6095 89.1003 17.5038C88.982 16.2797 89.1003 16.1612 91.072 15.253C92.2148 14.7397 93.2803 14.2658 93.477 14.2658C93.6351 14.2264 93.7533 14.9372 93.7533 15.7665Z" fill="#614E70"/>
<path d="M102.113 8.34072C99.1158 9.84123 98.3677 12.8422 100.496 14.9351L101.679 16.1197L100.496 16.9884C99.0374 17.9756 98.9589 18.647 100.142 19.8316L100.969 20.6608L99.7469 21.7269C97.8548 23.3064 98.1698 25.5573 100.338 26.3863C102.863 27.3343 104.282 27.2552 106.766 26.0311C109.566 24.6095 110.71 23.3064 110.71 21.4901C110.71 19.5156 109.606 18.9628 105.78 18.9628C101.877 18.9628 101.246 18.647 102.271 17.2254C102.705 16.6725 103.375 16.1988 103.77 16.1988C105.031 16.1988 107.91 14.6192 108.423 13.711C108.699 13.2371 108.975 12.1315 109.093 11.2627C109.291 9.99916 109.527 9.64379 110.237 9.56476C110.868 9.44635 111.104 9.16988 111.104 8.45914C111.104 7.35351 110.158 7.19559 109.093 8.14328C108.423 8.73561 108.265 8.73561 107.003 8.14328C105.229 7.314 104.163 7.35351 102.113 8.34072ZM104.992 8.93304C106.728 9.60427 107.358 13.3951 105.899 14.3823C104.638 15.2509 103.73 15.172 102.626 14.0269C100.378 11.8155 102.192 7.86681 104.992 8.93304ZM108.225 21.569C109.014 23.6224 106.057 25.9916 103.375 25.4782C102.035 25.2413 100.458 24.0961 100.458 23.3459C100.458 23.188 100.812 22.5562 101.285 21.9638C102.035 21.0161 102.31 20.9372 105.031 20.9372C107.397 20.9372 108.028 21.0557 108.225 21.569Z" fill="#614E70"/>
<path d="M115.561 8.53645C112.129 10.2344 110.946 14.0252 112.721 17.658C113.628 19.5534 115.757 20.9355 117.689 20.9355C119.306 20.896 121.831 19.6324 122.973 18.2504C125.576 15.2098 124.314 9.56316 120.727 8.06265C118.872 7.27289 117.847 7.3518 115.561 8.53645ZM119.819 9.60255C122.5 11.3795 122.855 16.3155 120.529 18.6848C119.543 19.6324 119.148 19.7904 118.124 19.5929C116.585 19.2771 115.481 18.3294 114.811 16.7103C113.706 14.1437 114.417 10.6293 116.27 9.32621C117.493 8.45742 118.242 8.53644 119.819 9.60255Z" fill="#614E70"/>
<path d="M132.006 8.65263L130.232 9.87679L129.877 8.96861C129.639 8.4947 129.443 8.02091 129.364 7.94188C129.166 7.66554 125.697 8.77116 125.697 9.12653C125.697 9.32397 126.13 9.4819 126.683 9.4819H127.669V14.4178C127.669 19.3537 127.669 19.3538 126.683 19.5907C124.908 20.0251 126.09 20.5384 128.89 20.5384C131.533 20.5384 132.44 20.0646 130.823 19.5512C130.114 19.3143 130.034 18.959 130.034 15.2866V11.2589L131.769 10.2717C133.268 9.4819 133.662 9.403 134.53 9.79789C135.555 10.2322 135.555 10.3112 135.555 14.7732C135.555 18.4061 135.436 19.3144 134.963 19.5118C133.504 20.0646 134.53 20.5384 137.133 20.5384C139.853 20.5384 140.839 19.9856 138.947 19.5118C138.001 19.2748 138.001 19.1958 137.842 14.2204C137.724 8.53421 137.488 8.02091 135.121 7.66554C134.057 7.50749 133.386 7.74445 132.006 8.65263Z" fill="#614E70"/>
<path d="M155.272 9.4435C155.272 9.64094 155.667 9.87778 156.101 9.95681C156.811 10.0358 157.323 11.0624 159.019 15.4455C160.123 18.4072 161.187 21.0133 161.345 21.2503C161.464 21.4871 161.109 22.4743 160.517 23.4615C159.65 24.8831 159.177 25.2384 158.348 25.278C157.402 25.278 157.244 25.4358 157.244 26.4625C157.244 27.5683 157.323 27.6472 158.782 27.6472H160.281L162.095 23.58C163.041 21.3687 164.697 17.3804 165.722 14.6953C167.181 10.865 167.734 9.87778 168.325 9.87778C168.719 9.87778 169.074 9.68034 169.074 9.4829C169.074 9.24606 168.01 9.08813 166.708 9.08813C165.407 9.08813 164.343 9.24606 164.343 9.4829C164.343 9.68034 164.618 9.87778 164.974 9.87778C165.367 9.87778 165.485 10.1147 165.367 10.5886C165.21 10.9835 164.539 13.0368 163.83 15.2086L162.528 19.0784L161.069 14.9322C159.374 10.1542 159.334 9.87778 160.399 9.87778C160.832 9.87778 161.187 9.68034 161.187 9.4829C161.187 9.24606 159.926 9.08813 158.23 9.08813C156.614 9.08813 155.272 9.24606 155.272 9.4435Z" fill="#614E70"/>
<path d="M12.1227 46.6059H36.9661V21.7284H30.6575V23.1105C30.6575 24.4925 30.6575 24.4925 32.4314 24.4925H34.2064V43.8413H14.489V24.4925H18.4325V21.7284H12.1227V46.6059Z" fill="#614E70"/>
<path d="M64.2194 26.4267C59.9996 27.9272 57.9096 30.4541 57.5934 34.5213C57.2785 38.2333 57.988 40.4446 60.1963 42.6558C63.0356 45.499 65.9148 46.0525 70.2131 44.5916C73.1309 43.643 73.4856 43.3277 73.8018 41.3533C74.0383 40.0893 73.9599 39.8924 73.3288 39.8924C72.8943 39.8924 72.3429 40.4059 71.9483 41.2735C71.0807 43.0908 69.6218 43.9596 67.5704 43.9198C63.3518 43.8799 60.2361 40.1679 60.2361 35.233C60.2361 32.3101 60.8274 30.5725 62.2863 28.9545C65.0074 26.0715 70.528 26.5848 71.9085 29.862C72.7363 31.8364 73.6437 31.6395 73.6437 29.4282C73.6437 27.7694 73.5653 27.6114 72.0267 26.8216C69.7002 25.6369 66.8211 25.4791 64.2194 26.4267Z" fill="#614E70"/>
<path d="M132.323 26.1519C130.628 26.586 130.272 27.6524 131.81 27.6524H132.796V35.708C132.796 43.6842 132.796 43.8026 131.928 43.921C131.455 43.9996 131.021 44.2763 130.903 44.5131C130.784 44.9082 131.534 45.0266 133.742 45.0266C136.778 45.0266 138.12 44.3947 135.99 43.9996L134.768 43.7627V34.7208C134.768 27.7313 134.65 25.6778 134.295 25.7174C134.018 25.757 133.111 25.9544 132.323 26.1519Z" fill="#614E70"/>
<path d="M104.007 29.862C104.007 31.2045 104.046 31.2432 105.307 31.1259C106.412 31.0063 106.57 30.8492 106.688 29.7037C106.806 28.4797 106.766 28.4398 105.426 28.4398C104.046 28.4398 104.007 28.4797 104.007 29.862Z" fill="#614E70"/>
<path d="M112.287 29.9732C112.089 30.4069 111.892 31.1187 111.892 31.5524C111.892 32.1445 111.576 32.3427 110.63 32.4611C108.816 32.6194 108.54 33.9619 110.275 33.9619H111.498V39.055C111.498 43.9125 111.538 44.2279 112.365 44.7813C113.588 45.6501 114.613 45.5703 116.427 44.426C118.123 43.3989 118.083 43.3204 115.638 43.2805L114.061 43.2406L113.824 33.9619H115.836C117.335 33.9619 117.808 33.8036 117.808 33.3686C117.808 32.9348 117.335 32.7765 115.836 32.7765H113.864V31.0002C113.864 29.0645 113.075 28.5522 112.287 29.9732Z" fill="#614E70"/>
<path d="M78.4946 33.1016C76.8776 33.8918 76.4046 34.3256 76.4046 35.0361C76.4046 36.3786 78.2581 36.3399 78.6128 34.9576C78.7709 34.2471 79.2041 33.9305 80.19 33.7336C82.0435 33.3783 82.7928 34.0888 82.6348 36.0632L82.5165 37.6425L79.7568 38.5898C78.2581 39.1034 76.7594 39.8151 76.5228 40.1703C75.7337 41.1962 75.8917 43.3289 76.7992 44.2376C78.2183 45.6586 79.4406 45.6586 81.3339 44.2763L83.0692 43.0136L83.3443 44.0793C83.5808 44.988 83.7389 45.0665 84.8044 44.8683C85.4343 44.7499 86.2235 44.6315 86.4998 44.6315C87.4061 44.6315 87.1309 43.8425 86.1052 43.4473C85.1978 43.132 85.1592 42.9338 85.0409 38.3143C84.8829 33.8121 84.8044 33.4568 83.9368 32.7463C82.6746 31.7193 80.9394 31.8377 78.4946 33.1016ZM82.7144 40.4072C82.7144 41.868 82.5563 42.1834 81.5705 42.7755C79.9137 43.724 78.8494 43.6443 78.2979 42.4601C77.9033 41.6312 77.9419 41.3146 78.4946 40.7624C79.0074 40.2888 81.6887 38.9463 82.6348 38.7481C82.6746 38.7083 82.7144 39.4586 82.7144 40.4072Z" fill="#614E70"/>
<path d="M93.3575 33.1391C91.8986 34.3643 91.3858 34.3643 91.3858 33.1391C91.3858 32.2715 91.031 32.2316 88.9808 32.8636C87.2456 33.3759 86.9692 33.9692 88.4281 33.9692H89.414V50.1584H88.4281C87.8767 50.1584 87.4423 50.3167 87.4423 50.5536C87.4423 50.7904 88.9023 50.9487 90.9923 50.9487C93.0823 50.9487 94.5413 50.7904 94.5413 50.5536C94.5413 50.3167 93.9101 50.1584 93.1608 50.1584H91.7803V45.2224H93.8703C97.8536 45.1837 100.14 42.9725 100.377 38.9838C100.575 35.9037 99.8254 33.8894 98.0105 32.7838C96.2367 31.7181 94.9745 31.7966 93.3575 33.1391ZM97.301 35.2319C98.2868 36.8511 98.3665 40.5631 97.4989 42.3006C96.4732 44.2751 94.1865 44.6702 92.4899 43.1296C91.8986 42.6559 91.7803 41.8656 91.7803 39.1421C91.7803 35.7853 91.8202 35.7454 93.0824 34.838C94.9347 33.5342 96.3549 33.6925 97.301 35.2319Z" fill="#614E70"/>
<path d="M121.282 33.058C119.428 33.8869 118.994 34.2821 118.994 35.0324C118.994 35.7828 119.192 35.9399 120.138 35.9399C121.044 35.9399 121.32 35.7429 121.439 35.0324C121.637 33.7286 124.358 33.0979 125.146 34.1636C125.462 34.5588 125.698 35.4662 125.698 36.1779C125.698 37.4406 125.619 37.4805 122.583 38.5076C120.02 39.3365 119.388 39.7316 118.994 40.6391C118.403 42.0613 118.836 43.6406 120.058 44.6278C121.4 45.6936 122.386 45.615 123.963 44.4309C125.54 43.2455 125.973 43.2056 126.29 44.2726C126.526 44.9432 126.763 45.0616 127.748 44.8646C128.419 44.7462 129.089 44.6278 129.286 44.6278C129.484 44.6278 129.642 44.3511 129.642 44.0357C129.642 43.7192 129.286 43.4436 128.892 43.4436C127.827 43.4436 127.67 42.7319 127.67 37.9542C127.67 35.111 127.512 33.4918 127.157 33.0181C126.329 31.8726 123.845 31.8726 121.282 33.058ZM125.698 40.244C125.698 41.5478 125.5 41.9429 124.514 42.6534C123.805 43.1669 122.897 43.4436 122.268 43.3639C121.36 43.2854 121.124 43.0485 121.044 41.9429C120.926 40.7189 121.044 40.6004 123.016 39.6918C124.16 39.1782 125.224 38.7444 125.422 38.7444C125.58 38.7046 125.698 39.4151 125.698 40.244Z" fill="#614E70"/>
<path d="M103.337 32.8587C101.76 33.3722 101.681 33.8857 103.14 34.0428L104.204 34.1612L104.323 38.9789C104.441 43.6781 104.402 43.7965 103.573 43.9149C103.061 43.9947 102.627 44.2702 102.509 44.507C102.391 44.9021 103.14 45.0205 105.388 45.0205C107.635 45.0205 108.384 44.9021 108.266 44.507C108.148 44.2702 107.715 43.9947 107.241 43.9149C106.413 43.7965 106.374 43.6394 106.374 38.0714C106.374 32.4249 106.374 32.385 105.507 32.4249C104.994 32.4635 104.008 32.6617 103.337 32.8587Z" fill="#614E70"/>
</g>
</svg>
