<svg width="187" height="45" viewBox="0 0 187 45" fill="none" xmlns="http://www.w3.org/2000/svg">
<mask id="mask0_2007_493" style="mask-type:luminance" maskUnits="userSpaceOnUse" x="0" y="0" width="187" height="45">
<path d="M186.311 0.208374H0.0338135V44.9753H186.311V0.208374Z" fill="white"/>
</mask>
<g mask="url(#mask0_2007_493)">
<path d="M-0.810913 20.2923L9.1685 15.3905L-0.810913 10.4886V20.2923Z" fill="#614E70"/>
<path d="M-0.810913 30.0956H29.1272V25.1946L19.1479 20.2922L-0.810913 30.0956Z" fill="#614E70"/>
<path d="M-0.810913 0.685059L19.1479 10.4888L29.1272 5.58691V0.685059H-0.810913Z" fill="#614E70"/>
<path d="M19.1479 10.4863L9.16846 15.3883L19.1479 20.2901L29.1272 25.1921V5.58447L19.1479 10.4863Z" fill="#614E70"/>
<path d="M172.251 18.4516C171.404 18.4581 170.558 18.5107 169.717 18.609C168.167 18.8478 167.313 19.625 167.313 20.9711C167.313 22.1394 168.094 22.7744 169.257 22.7744C170.85 22.7744 172.251 21.7128 172.251 19.6453V18.4516ZM168.177 25.4508C165.318 25.4508 163.523 23.6989 163.523 21.0269C163.523 18.5887 165.116 17.1004 167.758 16.4908C169.242 16.2112 170.751 16.087 172.262 16.12C172.262 14.0272 171.398 13.3161 169.185 13.3161C167.765 13.3428 166.366 13.6684 165.085 14.271V11.3705C166.539 10.7818 168.099 10.4847 169.671 10.4969C174.324 10.4969 176.005 12.5642 176.005 16.4604V22.2208H177.841V25.1318H172.67L172.386 23.6786H172.328C171.817 24.2578 171.18 24.7178 170.464 25.0254C169.75 25.3323 168.973 25.4798 168.192 25.4568L168.177 25.4508ZM121.476 18.4516C120.631 18.4581 119.786 18.5107 118.948 18.609C117.396 18.8478 116.543 19.625 116.543 20.9711C116.543 22.1394 117.324 22.7744 118.482 22.7744C120.075 22.7744 121.476 21.7128 121.476 19.6453V18.4516ZM117.407 25.4508C114.547 25.4508 112.753 23.6989 112.753 21.0269C112.753 18.5887 114.346 17.1004 116.988 16.4908C118.471 16.2112 119.981 16.087 121.492 16.12C121.492 14.0272 120.629 13.3161 118.42 13.3161C117 13.3429 115.602 13.6685 114.32 14.271V11.3705C115.774 10.7822 117.333 10.4852 118.907 10.4969C123.56 10.4969 125.246 12.5642 125.246 16.4604V22.2208H127.076V25.1318H121.905L121.611 23.6786H121.559C121.046 24.2569 120.409 24.7164 119.694 25.0242C118.978 25.3311 118.202 25.4785 117.423 25.4568L117.407 25.4508ZM64.0516 18.4516C63.2032 18.4581 62.3549 18.5107 61.5127 18.609C59.9608 18.8478 59.1138 19.625 59.1138 20.9711C59.1138 22.1394 59.8993 22.7744 61.0577 22.7744C62.6506 22.7744 64.0516 21.7128 64.0516 19.6453V18.4516ZM59.9765 25.4568C57.1179 25.4568 55.3235 23.704 55.3235 21.0321C55.3235 18.5938 56.9151 17.1055 59.5578 16.4959C61.0421 16.2162 62.5516 16.092 64.0612 16.1251C64.0612 14.0324 63.2032 13.3211 60.9853 13.3211C59.565 13.3474 58.1665 13.673 56.8849 14.2761V11.3705C58.339 10.7819 59.8981 10.4849 61.4716 10.4969C66.1247 10.4969 67.8104 12.5642 67.8104 16.4604V22.2208H69.6458V25.1318H64.4751L64.1758 23.6786H64.124C63.6111 24.2573 62.9739 24.7169 62.2584 25.0242C61.544 25.3323 60.7682 25.4798 59.9874 25.4568H59.9765ZM139.873 17.9233C139.873 15.2515 138.529 13.4735 136.45 13.4735C134.372 13.4735 133.053 15.2718 133.053 17.8979C133.053 20.5241 134.372 22.3731 136.373 22.3731C138.441 22.3731 139.878 20.5698 139.878 17.9182L139.873 17.9233ZM143.736 17.9182C143.736 22.3731 141.15 25.4508 137.396 25.4508C135.157 25.4508 133.834 24.5725 133.161 23.6734H133.089V29.7029L129.315 31.2266V13.6565H127.402V10.7458H132.795L133.037 12.6253H133.089C133.575 11.8836 134.707 10.4766 137.375 10.4766C141.285 10.4766 143.715 13.4177 143.715 17.9233L143.736 17.9182ZM88.6223 10.4766C87.7173 10.44 86.8183 10.6158 85.9965 10.9895C85.176 11.3633 84.4568 11.9239 83.9017 12.6253H83.8438L83.6012 10.7458H77.9708V13.6565H80.0753V25.1318H83.88V18.4821C83.88 14.9263 85.7938 13.6107 87.4385 13.6107C88.9891 13.6107 89.7023 14.5911 89.7023 16.7905V25.1318H93.4769V15.9423C93.4769 12.3408 91.8068 10.4817 88.6018 10.4817L88.6223 10.4766ZM105.887 22.0378C102.003 22.0378 99.7131 19.4676 99.7131 15.3327C99.7131 11.3046 102.003 8.57674 105.561 8.57674C106.422 8.57433 107.282 8.67148 108.12 8.86626V12.93L111.496 11.5535V6.76835C109.741 5.78803 107.746 5.29467 105.726 5.34107C99.765 5.34107 95.696 8.9425 95.696 15.3835C95.696 21.4791 99.3149 25.4568 105.726 25.4568C107.763 25.4556 109.767 24.9614 111.564 24.0189L110.731 20.8949C109.234 21.6531 107.571 22.0452 105.887 22.0378ZM183.632 22.2258V4.44702L179.832 5.97097V25.1318H185.467V22.2208H183.632V22.2258ZM50.1323 19.3049C50.1323 17.4509 48.7566 16.4401 46.3831 16.4401H42.7642V22.1953H46.435C49.0776 22.1953 50.1577 21.0269 50.1577 19.3049H50.1323ZM42.7437 13.5548H45.8196C48.0073 13.5548 49.0571 12.5389 49.0571 11.0912C49.0571 9.42003 48.023 8.55137 46.0367 8.55137H42.7437V13.5548ZM54.1494 19.498C54.1494 23.2315 51.1556 25.1112 46.6522 25.1112H38.8292V8.57166H36.4556V5.65595H46.0054C48.5913 5.65595 49.8945 6.00142 50.9178 6.6364C51.5755 7.04131 52.1137 7.60947 52.4769 8.28372C52.8402 8.95797 53.0151 9.71426 52.9862 10.4766C52.9862 12.5084 51.6938 14.0831 49.5893 14.6368V14.6926C52.4226 15.1701 54.1494 16.9988 54.1494 19.5183V19.498ZM144.811 13.6565H146.879V25.1318H150.67V10.7458H144.811V13.6565ZM146.879 8.2517H150.67V4.73146H146.864V8.25678L146.879 8.2517ZM70.0078 13.6565H72.0761V25.1318H75.882V10.7458H70.0078V13.6565ZM72.0761 8.2517H75.882V4.73146H72.0761V8.25678V8.2517ZM158.617 10.7408H162.473V13.6565H158.617V20.006C158.617 21.5959 158.968 22.5458 160.529 22.5458C161.111 22.5146 161.689 22.4348 162.256 22.307V25.0907C161.286 25.3323 160.291 25.4677 159.289 25.4918C156.32 25.4918 154.836 24.085 154.836 20.9863V13.6565H152.768V10.7458H154.836V8.27708L158.617 6.75313V10.756V10.7408Z" fill="#614E70"/>
<path d="M44.7926 35.8496L42.4082 43.2712L40.0503 35.8496H38.0399L41.2859 45.2722H43.4061L46.6533 35.8496H44.7926Z" fill="#614E70"/>
<path d="M48.2087 35.8496V45.2722H54.5113V43.7582H50.1117V41.0865H54.0721V39.6039H50.1117V37.3177H54.3726V35.8496H48.2087Z" fill="#614E70"/>
<path d="M62.7036 35.8496V42.3359L58.6128 35.8496H56.5712V45.2722H58.3703V38.4451L62.6722 45.2722H64.5028V35.8496H62.7036Z" fill="#614E70"/>
<path d="M66.0908 35.8496V37.3177H68.8409V45.2722H70.7342V37.3177H73.4637V35.8496H66.0908Z" fill="#614E70"/>
<path d="M80.7232 35.8496H82.6262V41.5336C82.6262 42.7987 82.4295 43.6567 81.7827 44.3684C81.1371 45.0789 80.2321 45.4244 78.8046 45.4244C77.3783 45.4244 76.4624 45.0849 75.8265 44.3684C75.1905 43.6518 74.9685 42.8084 74.9685 41.5493V35.8496H76.8715V41.64C76.8715 42.458 76.9644 42.8289 77.2649 43.1637C77.68 43.5467 78.2278 43.7594 78.7973 43.7594C79.3669 43.7594 79.9148 43.5467 80.3299 43.1637C80.6351 42.8084 80.7232 42.4375 80.7232 41.64V35.8496Z" fill="#614E70"/>
<path d="M89.4199 37.5884C89.0567 37.3576 88.6271 37.2477 88.1951 37.2743H86.8508V40.2154H88.1794C88.6162 40.2419 89.0506 40.132 89.4199 39.9C89.5985 39.7634 89.7433 39.587 89.8422 39.3876C89.9412 39.1871 89.993 38.9672 89.993 38.7448C89.993 38.5213 89.9412 38.3026 89.8422 38.102C89.7433 37.9014 89.5985 37.7262 89.4199 37.5884ZM90.2778 45.2746L88.0394 41.6122H86.8448V45.2746H84.9479V35.8521H88.4062C89.2606 35.8013 90.1077 36.0236 90.8209 36.4864C91.2203 36.8018 91.5255 37.2163 91.7029 37.6875C91.8815 38.1588 91.9274 38.6675 91.8345 39.1629C91.7415 39.6571 91.5147 40.1175 91.1768 40.4945C90.839 40.8727 90.4033 41.153 89.917 41.3077L92.4548 45.2698H90.2778V45.2746Z" fill="#614E70"/>
<path d="M94.1345 35.8496V45.2722H100.432V43.7582H96.0375V41.0865H99.9979V39.6039H96.0375V37.3177H100.298V35.8496H94.1345Z" fill="#614E70"/>
<path d="M105.166 45.4051C103.844 45.4051 102.572 44.9 101.62 43.9986L102.571 42.6779C103.269 43.3485 104.184 43.7581 105.156 43.8354C106.288 43.8354 106.863 43.3932 106.863 42.6779C106.863 41.9613 106.154 41.7015 105.772 41.5493C105.389 41.397 104.174 40.9705 103.915 40.869C103.379 40.7131 102.908 40.3893 102.574 39.9482C102.24 39.506 102.061 38.9707 102.064 38.4209C102.064 37.2017 102.939 35.7034 105.508 35.7034C106.702 35.707 107.852 36.1505 108.73 36.948L107.913 38.2276C107.238 37.6162 106.367 37.2561 105.451 37.2114C104.469 37.2114 103.9 37.5666 103.9 38.2687C103.9 38.9695 104.598 39.2184 104.934 39.3658C105.27 39.5132 106.485 39.9289 106.759 40.0365C108.191 40.544 108.723 41.4587 108.723 42.5099C108.723 43.8608 107.741 45.451 105.105 45.451" fill="#614E70"/>
</g>
</svg>
