<svg width="253" height="37" viewBox="0 0 253 37" fill="none" xmlns="http://www.w3.org/2000/svg">
<g filter="url(#filter0_i_21_8)">
<path d="M11.0701 30.5038H0L10.4464 15.5394H21.5166L11.0701 30.5038Z" fill="#A200FF"/>
<path d="M32.5868 15.5394H21.5166L31.9629 30.5038H43.0331L32.5868 15.5394Z" fill="#A200FF"/>
<path d="M36.8222 6.21374C36.8222 8.17889 36.4262 10.1248 35.6571 11.9404C34.888 13.7559 33.7605 15.4056 32.3392 16.7952C30.918 18.1848 29.2307 19.287 27.3738 20.0391C25.5168 20.7911 23.5265 21.1781 21.5166 21.1781C19.5066 21.1781 17.5163 20.7911 15.6593 20.0391C13.8024 19.287 12.1151 18.1848 10.6939 16.7952C9.27263 15.4056 8.14522 13.7559 7.37603 11.9404C6.60686 10.1248 6.21098 8.17889 6.21098 6.21374H12.7294C12.7294 7.34196 12.9567 8.45913 13.3983 9.50148C13.8399 10.5438 14.4872 11.4909 15.3031 12.2887C16.1191 13.0864 17.0878 13.7193 18.1539 14.151C19.22 14.5828 20.3626 14.805 21.5166 14.805C22.6705 14.805 23.8131 14.5828 24.8792 14.151C25.9454 13.7193 26.914 13.0864 27.73 12.2887C28.546 11.4909 29.1932 10.5438 29.6348 9.50148C30.0764 8.45913 30.3037 7.34196 30.3037 6.21374H36.8222Z" fill="#A200FF"/>
</g>
<path d="M58.5481 28.8092V9.28672H70.7892V12.3507H61.903V18.0447H69.1117V21.1086H61.903V28.8092H58.5481ZM81.1379 16.933C80.9253 16.8878 80.685 16.8607 80.417 16.8517C80.1583 16.8336 79.8717 16.8245 79.5575 16.8245C78.43 16.8245 77.5613 17.1635 76.9513 17.8413C76.3413 18.5102 76.0363 19.4773 76.0363 20.7426V28.8092H72.6953V14.1673H76.0363V16.0789C76.2212 15.7445 76.443 15.4372 76.7017 15.157C76.9698 14.8768 77.284 14.6328 77.6444 14.4249C78.0049 14.217 78.4115 14.0543 78.8644 13.9369C79.3265 13.8194 79.8486 13.7606 80.4309 13.7606C80.551 13.7606 80.6666 13.7651 80.7775 13.7742C80.8976 13.7742 81.0178 13.7787 81.1379 13.7877V16.933ZM83.4929 11.9439V8.94778H86.8339V11.9439H83.4929ZM83.4929 28.8092V14.1673H86.8339V28.8092H83.4929ZM97.0723 26.2062C97.9318 26.2062 98.6434 26.0344 99.2072 25.691C99.771 25.3385 100.219 24.8143 100.552 24.1183L103.851 25.0402C103.269 26.3779 102.391 27.4082 101.217 28.1313C100.044 28.8543 98.6619 29.2159 97.0723 29.2159C95.954 29.2159 94.9328 29.0306 94.0086 28.66C93.0936 28.2804 92.308 27.7517 91.6518 27.0738C91.0049 26.3869 90.5012 25.569 90.1408 24.62C89.7803 23.671 89.6001 22.6271 89.6001 21.4882C89.6001 20.3314 89.7803 19.2784 90.1408 18.3294C90.5105 17.3804 91.0234 16.567 91.6796 15.8891C92.3358 15.2112 93.1167 14.687 94.0224 14.3165C94.9374 13.9459 95.9448 13.7606 97.0446 13.7606C98.2368 13.7606 99.2857 13.964 100.191 14.3707C101.106 14.7774 101.864 15.3558 102.465 16.106C103.066 16.8562 103.5 17.7645 103.768 18.831C104.036 19.8885 104.119 21.077 104.018 22.3966H93.1906C93.3385 23.6077 93.7452 24.5477 94.4106 25.2165C95.0853 25.8763 95.9725 26.2062 97.0723 26.2062ZM100.621 19.9292C100.538 18.8898 100.182 18.0854 99.5538 17.516C98.9346 16.9466 98.0981 16.6619 97.0446 16.6619C96.0279 16.6619 95.1962 16.9466 94.5492 17.516C93.9115 18.0854 93.4864 18.8898 93.2738 19.9292H100.621ZM116.478 20.7426C116.478 19.4863 116.178 18.5192 115.577 17.8413C114.986 17.1635 114.121 16.8245 112.985 16.8245C111.848 16.8245 110.975 17.1635 110.365 17.8413C109.764 18.5102 109.464 19.4773 109.464 20.7426V28.8092H106.123V14.1673H109.464V16.0789C109.648 15.7445 109.87 15.4372 110.129 15.157C110.397 14.8768 110.711 14.6328 111.072 14.4249C111.432 14.217 111.839 14.0543 112.292 13.9369C112.754 13.8194 113.276 13.7606 113.858 13.7606C114.755 13.7606 115.568 13.8871 116.298 14.1402C117.028 14.3933 117.652 14.7774 118.169 15.2926C118.696 15.8078 119.103 16.463 119.389 17.2584C119.676 18.0447 119.819 18.9802 119.819 20.0647V28.8092H116.478V20.7426ZM136.761 9.28672V28.8092H133.434V26.8434C132.981 27.5935 132.376 28.1765 131.618 28.5922C130.869 29.008 129.936 29.2159 128.817 29.2159C127.838 29.2159 126.932 29.0261 126.1 28.6465C125.278 28.2669 124.561 27.7381 123.952 27.0603C123.351 26.3734 122.879 25.5554 122.537 24.6064C122.205 23.6574 122.038 22.618 122.038 21.4882C122.038 20.3494 122.205 19.3055 122.537 18.3565C122.879 17.4075 123.351 16.5941 123.952 15.9162C124.561 15.2293 125.278 14.7006 126.1 14.33C126.932 13.9504 127.838 13.7606 128.817 13.7606C129.945 13.7606 130.883 13.973 131.632 14.3978C132.38 14.8136 132.981 15.392 133.434 16.1331V9.28672H136.761ZM129.511 16.8245C128.854 16.8245 128.277 16.9375 127.778 17.1635C127.288 17.3894 126.877 17.7103 126.544 18.126C126.22 18.5328 125.976 19.0253 125.809 19.6038C125.652 20.1732 125.573 20.8013 125.573 21.4882C125.573 22.1932 125.657 22.8349 125.823 23.4134C125.989 23.9828 126.234 24.4708 126.558 24.8776C126.89 25.2843 127.302 25.6006 127.792 25.8266C128.291 26.0435 128.864 26.1519 129.511 26.1519C130.185 26.1519 130.767 26.039 131.257 25.813C131.747 25.5871 132.154 25.2707 132.477 24.864C132.801 24.4482 133.041 23.9557 133.198 23.3863C133.355 22.8078 133.434 22.1751 133.434 21.4882C133.434 20.7742 133.351 20.1325 133.184 19.5631C133.018 18.9847 132.768 18.4921 132.436 18.0854C132.112 17.6787 131.706 17.3668 131.216 17.1499C130.726 16.933 130.158 16.8245 129.511 16.8245ZM145.9 29.2159C144.034 29.2159 142.527 28.8182 141.381 28.0228C140.235 27.2184 139.523 26.0661 139.246 24.5657L142.67 24.037C142.855 24.8143 143.225 25.4018 143.779 25.7994C144.343 26.1881 145.073 26.3824 145.97 26.3824C146.783 26.3824 147.425 26.2288 147.897 25.9215C148.377 25.6142 148.618 25.1849 148.618 24.6335C148.618 24.4708 148.599 24.3262 148.562 24.1997C148.525 24.0641 148.456 23.9421 148.354 23.8336C148.262 23.7252 148.132 23.6258 147.966 23.5354C147.809 23.436 147.601 23.3411 147.342 23.2507C146.834 23.0699 146.002 22.8304 144.847 22.5322C143.978 22.3152 143.225 22.0802 142.587 21.8272C141.949 21.5741 141.418 21.2804 140.993 20.946C140.568 20.6115 140.249 20.2274 140.036 19.7936C139.833 19.3507 139.731 18.831 139.731 18.2345C139.731 17.5566 139.87 16.9466 140.147 16.4043C140.434 15.8529 140.836 15.383 141.353 14.9943C141.871 14.5966 142.495 14.2939 143.225 14.086C143.955 13.8691 144.764 13.7606 145.651 13.7606C146.51 13.7606 147.301 13.8645 148.021 14.0724C148.752 14.2713 149.389 14.5605 149.935 14.9401C150.48 15.3107 150.923 15.7626 151.265 16.2958C151.617 16.8291 151.838 17.4256 151.931 18.0854L148.521 18.6819C148.428 18.0311 148.118 17.5205 147.592 17.1499C147.065 16.7703 146.381 16.5805 145.54 16.5805C145.18 16.5805 144.847 16.6167 144.542 16.689C144.237 16.7613 143.973 16.8652 143.752 17.0008C143.539 17.1364 143.368 17.2991 143.239 17.4889C143.119 17.6696 143.059 17.8685 143.059 18.0854C143.059 18.2842 143.105 18.4559 143.197 18.6005C143.29 18.7361 143.419 18.8627 143.585 18.9802C143.752 19.0886 143.955 19.188 144.195 19.2784C144.436 19.3688 144.704 19.4592 144.999 19.5496C145.332 19.649 145.725 19.7665 146.178 19.902C146.631 20.0286 147.143 20.1687 147.716 20.3223C148.502 20.5302 149.167 20.7652 149.713 21.0273C150.258 21.2894 150.702 21.5877 151.044 21.9221C151.395 22.2474 151.649 22.6225 151.806 23.0473C151.963 23.4721 152.042 23.9511 152.042 24.4844C152.042 25.2165 151.898 25.8763 151.612 26.4638C151.335 27.0512 150.928 27.5483 150.392 27.9551C149.865 28.3618 149.223 28.6736 148.465 28.8905C147.707 29.1074 146.852 29.2159 145.9 29.2159ZM159.797 28.8092V9.28672H163.166V28.8092H159.797ZM177.091 20.7426C177.091 19.4863 176.791 18.5192 176.19 17.8413C175.598 17.1635 174.734 16.8245 173.598 16.8245C172.461 16.8245 171.587 17.1635 170.977 17.8413C170.377 18.5102 170.076 19.4773 170.076 20.7426V28.8092H166.735V14.1673H170.076V16.0789C170.261 15.7445 170.483 15.4372 170.742 15.157C171.01 14.8768 171.324 14.6328 171.684 14.4249C172.045 14.217 172.452 14.0543 172.904 13.9369C173.367 13.8194 173.889 13.7606 174.471 13.7606C175.367 13.7606 176.181 13.8871 176.911 14.1402C177.641 14.3933 178.265 14.7774 178.782 15.2926C179.309 15.8078 179.716 16.463 180.002 17.2584C180.289 18.0447 180.432 18.9802 180.432 20.0647V28.8092H177.091V20.7426ZM187.531 28.8092L182.097 14.1673H185.452L189.208 24.7962L192.979 14.1673H196.32L190.886 28.8092H187.531ZM204.353 26.2062C205.212 26.2062 205.924 26.0344 206.488 25.691C207.051 25.3385 207.5 24.8143 207.832 24.1183L211.132 25.0402C210.549 26.3779 209.671 27.4082 208.498 28.1313C207.324 28.8543 205.942 29.2159 204.353 29.2159C203.234 29.2159 202.213 29.0306 201.289 28.66C200.374 28.2804 199.588 27.7517 198.932 27.0738C198.285 26.3869 197.782 25.569 197.421 24.62C197.061 23.671 196.881 22.6271 196.881 21.4882C196.881 20.3314 197.061 19.2784 197.421 18.3294C197.791 17.3804 198.304 16.567 198.96 15.8891C199.616 15.2112 200.397 14.687 201.303 14.3165C202.218 13.9459 203.225 13.7606 204.325 13.7606C205.517 13.7606 206.566 13.964 207.472 14.3707C208.387 14.7774 209.145 15.3558 209.745 16.106C210.346 16.8562 210.78 17.7645 211.049 18.831C211.317 19.8885 211.4 21.077 211.298 22.3966H200.471C200.619 23.6077 201.026 24.5477 201.691 25.2165C202.366 25.8763 203.253 26.2062 204.353 26.2062ZM207.902 19.9292C207.818 18.8898 207.463 18.0854 206.834 17.516C206.215 16.9466 205.379 16.6619 204.325 16.6619C203.308 16.6619 202.477 16.9466 201.83 17.516C201.192 18.0854 200.767 18.8898 200.554 19.9292H207.902ZM219.659 29.2159C217.792 29.2159 216.286 28.8182 215.14 28.0228C213.994 27.2184 213.282 26.0661 213.005 24.5657L216.429 24.037C216.614 24.8143 216.984 25.4018 217.538 25.7994C218.102 26.1881 218.832 26.3824 219.728 26.3824C220.542 26.3824 221.184 26.2288 221.655 25.9215C222.136 25.6142 222.376 25.1849 222.376 24.6335C222.376 24.4708 222.358 24.3262 222.321 24.1997C222.284 24.0641 222.215 23.9421 222.113 23.8336C222.02 23.7252 221.891 23.6258 221.725 23.5354C221.568 23.436 221.36 23.3411 221.101 23.2507C220.593 23.0699 219.761 22.8304 218.606 22.5322C217.737 22.3152 216.984 22.0802 216.346 21.8272C215.708 21.5741 215.177 21.2804 214.752 20.946C214.327 20.6115 214.008 20.2274 213.795 19.7936C213.592 19.3507 213.49 18.831 213.49 18.2345C213.49 17.5566 213.629 16.9466 213.906 16.4043C214.193 15.8529 214.595 15.383 215.112 14.9943C215.63 14.5966 216.253 14.2939 216.984 14.086C217.714 13.8691 218.522 13.7606 219.41 13.7606C220.269 13.7606 221.059 13.8645 221.78 14.0724C222.51 14.2713 223.148 14.5605 223.693 14.9401C224.239 15.3107 224.682 15.7626 225.024 16.2958C225.375 16.8291 225.597 17.4256 225.69 18.0854L222.279 18.6819C222.187 18.0311 221.877 17.5205 221.35 17.1499C220.824 16.7703 220.14 16.5805 219.299 16.5805C218.938 16.5805 218.606 16.6167 218.301 16.689C217.996 16.7613 217.732 16.8652 217.51 17.0008C217.298 17.1364 217.127 17.2991 216.997 17.4889C216.877 17.6696 216.817 17.8685 216.817 18.0854C216.817 18.2842 216.863 18.4559 216.956 18.6005C217.048 18.7361 217.178 18.8627 217.344 18.9802C217.51 19.0886 217.714 19.188 217.954 19.2784C218.194 19.3688 218.462 19.4592 218.758 19.5496C219.091 19.649 219.484 19.7665 219.936 19.902C220.389 20.0286 220.902 20.1687 221.475 20.3223C222.261 20.5302 222.926 20.7652 223.471 21.0273C224.017 21.2894 224.46 21.5877 224.802 21.9221C225.154 22.2474 225.408 22.6225 225.565 23.0473C225.722 23.4721 225.8 23.9511 225.8 24.4844C225.8 25.2165 225.657 25.8763 225.371 26.4638C225.093 27.0512 224.687 27.5483 224.151 27.9551C223.624 28.3618 222.982 28.6736 222.224 28.8905C221.466 29.1074 220.611 29.2159 219.659 29.2159ZM226.619 14.1673H229.336V9.28672H232.663V14.1673H237.058V17.2042H232.663V24.0099C232.663 24.6697 232.815 25.1532 233.12 25.4605C233.435 25.7588 233.929 25.9079 234.604 25.9079H237.058V28.8092H233.911C232.46 28.8092 231.332 28.4476 230.528 27.7246C229.733 27.0015 229.336 25.9847 229.336 24.6742V17.2042H226.619V14.1673ZM245.545 29.2159C243.678 29.2159 242.172 28.8182 241.026 28.0228C239.88 27.2184 239.168 26.0661 238.891 24.5657L242.315 24.037C242.5 24.8143 242.869 25.4018 243.424 25.7994C243.988 26.1881 244.718 26.3824 245.614 26.3824C246.427 26.3824 247.07 26.2288 247.541 25.9215C248.022 25.6142 248.262 25.1849 248.262 24.6335C248.262 24.4708 248.244 24.3262 248.207 24.1997C248.17 24.0641 248.1 23.9421 247.999 23.8336C247.906 23.7252 247.777 23.6258 247.61 23.5354C247.453 23.436 247.245 23.3411 246.987 23.2507C246.478 23.0699 245.647 22.8304 244.491 22.5322C243.623 22.3152 242.869 22.0802 242.232 21.8272C241.594 21.5741 241.062 21.2804 240.637 20.946C240.212 20.6115 239.893 20.2274 239.681 19.7936C239.477 19.3507 239.376 18.831 239.376 18.2345C239.376 17.5566 239.514 16.9466 239.792 16.4043C240.078 15.8529 240.48 15.383 240.998 14.9943C241.515 14.5966 242.139 14.2939 242.869 14.086C243.599 13.8691 244.408 13.7606 245.295 13.7606C246.155 13.7606 246.945 13.8645 247.666 14.0724C248.396 14.2713 249.034 14.5605 249.579 14.9401C250.124 15.3107 250.568 15.7626 250.91 16.2958C251.261 16.8291 251.483 17.4256 251.575 18.0854L248.165 18.6819C248.073 18.0311 247.763 17.5205 247.236 17.1499C246.709 16.7703 246.025 16.5805 245.184 16.5805C244.824 16.5805 244.491 16.6167 244.186 16.689C243.881 16.7613 243.618 16.8652 243.396 17.0008C243.184 17.1364 243.013 17.2991 242.883 17.4889C242.763 17.6696 242.703 17.8685 242.703 18.0854C242.703 18.2842 242.749 18.4559 242.842 18.6005C242.934 18.7361 243.063 18.8627 243.23 18.9802C243.396 19.0886 243.599 19.188 243.84 19.2784C244.08 19.3688 244.348 19.4592 244.644 19.5496C244.977 19.649 245.369 19.7665 245.822 19.902C246.275 20.0286 246.788 20.1687 247.361 20.3223C248.146 20.5302 248.812 20.7652 249.357 21.0273C249.902 21.2894 250.346 21.5877 250.688 21.9221C251.039 22.2474 251.293 22.6225 251.451 23.0473C251.608 23.4721 251.686 23.9511 251.686 24.4844C251.686 25.2165 251.543 25.8763 251.256 26.4638C250.979 27.0512 250.573 27.5483 250.036 27.9551C249.51 28.3618 248.867 28.6736 248.11 28.8905C247.352 29.1074 246.497 29.2159 245.545 29.2159Z" fill="white"/>
<defs>
<filter id="filter0_i_21_8" x="0" y="6.21374" width="43.0331" height="28.2901" filterUnits="userSpaceOnUse" color-interpolation-filters="sRGB">
<feFlood flood-opacity="0" result="BackgroundImageFix"/>
<feBlend mode="normal" in="SourceGraphic" in2="BackgroundImageFix" result="shape"/>
<feColorMatrix in="SourceAlpha" type="matrix" values="0 0 0 0 0 0 0 0 0 0 0 0 0 0 0 0 0 0 127 0" result="hardAlpha"/>
<feOffset dy="4"/>
<feGaussianBlur stdDeviation="11"/>
<feComposite in2="hardAlpha" operator="arithmetic" k2="-1" k3="1"/>
<feColorMatrix type="matrix" values="0 0 0 0 1 0 0 0 0 1 0 0 0 0 1 0 0 0 1 0"/>
<feBlend mode="normal" in2="shape" result="effect1_innerShadow_21_8"/>
</filter>
</defs>
</svg>
