<?xml version="1.0" encoding="utf-8"?><svg viewBox="0 0 128 129" xmlns="http://www.w3.org/2000/svg" xmlns:xlink="http://www.w3.org/1999/xlink"><style>:root>svg{display:none}:root>svg:target{display:block}</style><svg viewBox="0 0 28 28" id="eth" xmlns="http://www.w3.org/2000/svg"><g clip-path="url(#aclip0_37_71)"><path d="M14 28c7.732 0 14-6.268 14-14S21.732 0 14 0 0 6.268 0 14s6.268 14 14 14z"/><path d="M14.436 3.5v7.761l6.56 2.932L14.436 3.5z" fill-opacity=".602"/><path d="M14.436 3.5L7.875 14.193l6.56-2.932V3.5z"/><path d="M14.436 19.222v5.274L21 15.414l-6.564 3.808z" fill-opacity=".602"/><path d="M14.436 24.496V19.22l-6.561-3.807 6.56 9.082z"/><path d="M14.436 18.001l6.56-3.809-6.56-2.93v6.74z" fill-opacity=".2"/><path d="M7.875 14.192l6.56 3.81v-6.74l-6.56 2.93z" fill-opacity=".602"/></g><defs><clipPath id="aclip0_37_71"><path d="M0 0h28v28H0z"/></clipPath></defs></svg><svg viewBox="0 0 128 129" id="favicon" xmlns="http://www.w3.org/2000/svg"><path d="M61.801.114c-4.134.14-8.169.668-12.068 1.557v52.91c0 .781-.417 1.505-1.094 1.896l-36.153 20.91c-5.574-17.95.841-42.828 20.8-56.867v25.81l-4.377 2.503V29.965C18.484 40.679 13.513 55.648 15.507 70.559l29.848-17.244V2.834C6.631 14.612-11.291 58.92 7.513 94.18l54.289-31.364V.114zM9.725 97.963a64.134 64.134 0 007.381 9.681l45.79-26.455a2.187 2.187 0 012.189 0l36.174 20.875c-12.749 13.805-37.486 20.685-59.616 10.407l22.338-12.904 4.354 2.542-16.329 9.434c14.485 3.678 29.925.501 41.833-8.685L63.99 85.614l-43.687 25.241c29.555 27.669 76.863 21.046 97.975-12.88L63.991 66.61 9.725 97.963zM120.446 94.168a64.277 64.277 0 004.688-11.236L79.343 56.477a2.19 2.19 0 01-1.094-1.896l-.02-41.787c18.321 4.145 36.643 22.144 38.815 46.46L94.707 46.35l.022-5.045 16.329 9.434a48.893 48.893 0 00-28.432-31.91v34.488l43.689 25.24C135.482 39.109 106.098 1.422 66.18.089v62.727l54.266 31.352z"/></svg><svg viewBox="0 0 52 53" id="holder" xmlns="http://www.w3.org/2000/svg"><rect y=".5" width="52" height="52" rx="10"/><rect x=".5" y="1" width="51" height="51" rx="9.5"/><path d="M33.184 22.305l-2.965-2.967c-2.027-2.03-3.04-3.043-4.129-2.803-1.088.24-1.581 1.587-2.568 4.28l-.668 1.823c-.263.718-.395 1.077-.632 1.355a2.033 2.033 0 01-.36.332c-.296.213-.664.314-1.4.517-1.66.458-2.491.687-2.804 1.23a1.529 1.529 0 00-.204.773c.004.627.613 1.236 1.83 2.455l1.415 1.416-4.476 4.48a.764.764 0 001.08 1.08l4.475-4.48 1.466 1.468c1.226 1.226 1.839 1.84 2.47 1.84.265 0 .526-.068.757-.2.548-.313.778-1.149 1.238-2.822.203-.735.304-1.102.516-1.399.093-.129.201-.247.322-.352.275-.238.632-.372 1.345-.64l1.844-.693c2.664-1 3.996-1.501 4.23-2.587.235-1.085-.77-2.092-2.782-4.106z"/></svg><svg viewBox="0 0 20 21" id="like" xmlns="http://www.w3.org/2000/svg"><path fill-rule="evenodd" clip-rule="evenodd" d="M9.994 4.78C8.328 2.832 5.55 2.308 3.462 4.092c-2.087 1.783-2.381 4.765-.742 6.875 1.363 1.754 5.488 5.453 6.84 6.65.151.134.227.201.315.228a.42.42 0 00.238 0c.089-.027.164-.094.316-.228 1.351-1.197 5.476-4.896 6.84-6.65 1.639-2.11 1.38-5.11-.743-6.875-2.123-1.765-4.866-1.26-6.532.688z"/></svg><svg viewBox="0 0 20 21" id="message" xmlns="http://www.w3.org/2000/svg"><path d="M17.5 10.5a7.5 7.5 0 01-10.32 6.952 2.368 2.368 0 00-.318-.117.755.755 0 00-.182-.02c-.069 0-.144.012-.294.037l-2.965.495c-.31.051-.466.077-.578.029a.416.416 0 01-.219-.219c-.048-.112-.022-.267.03-.578l.494-2.965a1.93 1.93 0 00.037-.294.758.758 0 00-.02-.182c-.015-.068-.049-.15-.117-.318A7.5 7.5 0 1117.5 10.5z"/></svg><svg viewBox="0 0 20 21" id="repost" xmlns="http://www.w3.org/2000/svg"><path d="M17.326 11.006c.204-.174.305-.261.343-.365a.417.417 0 000-.282c-.038-.104-.14-.19-.343-.365l-7.059-6.05c-.35-.3-.525-.45-.673-.455a.417.417 0 00-.334.154c-.093.115-.093.345-.093.806v3.58a8.055 8.055 0 00-6.667 7.93v.51a9.5 9.5 0 016.667-3.41v3.492c0 .46 0 .691.093.806.082.1.205.157.334.154.148-.004.323-.154.673-.454l7.06-6.05z"/></svg><svg viewBox="0 0 52 53" id="search" xmlns="http://www.w3.org/2000/svg"><rect y=".5" width="52" height="52" rx="10"/><rect x=".5" y="1" width="51" height="51" rx="9.5"/><path d="M35 35.5l-6-6m2-5a7 7 0 11-14 0 7 7 0 0114 0z"/></svg><svg stroke-width="2" stroke-linecap="round" stroke-linejoin="round" class="hlucide hlucide-settings2 hw-4 hh-4 htext-text-brand" viewBox="0 0 24 24" id="settings" xmlns="http://www.w3.org/2000/svg"><path d="M20 7h-9M14 17H5"/><circle cx="17" cy="17" r="3"/><circle cx="7" cy="7" r="3"/></svg><svg viewBox="0 0 25 22" id="solana" xmlns="http://www.w3.org/2000/svg"><g clip-path="url(#iclip0_37_129)"><path d="M24.871 17.283l-4.127 4.311a.96.96 0 01-.7.297H.478a.488.488 0 01-.263-.076.456.456 0 01-.088-.709l4.13-4.312a.958.958 0 01.7-.297H24.52a.473.473 0 01.44.28.457.457 0 01-.09.506zM20.744 8.6a.959.959 0 00-.7-.297H.478a.488.488 0 00-.263.077.456.456 0 00-.088.709l4.13 4.311a.958.958 0 00.7.297H24.52a.473.473 0 00.44-.28.457.457 0 00-.09-.505L20.744 8.6zM.48 5.503h19.564a.98.98 0 00.701-.297L24.871.894a.463.463 0 00.09-.504.472.472 0 00-.177-.205.489.489 0 00-.263-.076H4.958a.98.98 0 00-.7.297L.13 4.717a.462.462 0 00-.09.504.47.47 0 00.177.205c.078.05.169.076.262.077z"/></g><defs><linearGradient id="ipaint0_linear_37_129" x1="2.11" y1="22.41" x2="22.028" y2="-.638" gradientUnits="userSpaceOnUse"><stop offset=".08" stop-color="#9945FF"/><stop offset=".3" stop-color="#8752F3"/><stop offset=".5" stop-color="#5497D5"/><stop offset=".6" stop-color="#43B4CA"/><stop offset=".72" stop-color="#28E0B9"/><stop offset=".97" stop-color="#19FB9B"/></linearGradient><clipPath id="iclip0_37_129"><path transform="translate(0 .109)" d="M0 0h25v21.782H0z"/></clipPath></defs></svg><svg viewBox="0 0 52 53" id="twitter" xmlns="http://www.w3.org/2000/svg"><rect y=".5" width="52" height="52" rx="10"/><rect x=".5" y="1" width="51" height="51" rx="9.5"/><path d="M31.801 17.5h3.066l-6.731 7.664L36 35.561h-6.171l-4.832-6.318-5.532 6.318H16.4l7.13-8.198L16 17.5h6.325l4.365 5.771L31.8 17.5zm-1.073 16.261h1.7L21.432 19.233h-1.826L30.727 33.76z"/></svg><svg viewBox="0 0 17 17" id="verif" xmlns="http://www.w3.org/2000/svg"><path fill-rule="evenodd" clip-rule="evenodd" d="M6.574 1.46c-.195.166-.292.25-.396.319a2.17 2.17 0 01-.788.326c-.123.025-.25.035-.506.055-.641.051-.962.077-1.229.171a2.17 2.17 0 00-1.324 1.324c-.094.267-.12.588-.17 1.23-.021.254-.031.382-.056.505a2.17 2.17 0 01-.326.788c-.07.104-.153.201-.319.396-.417.49-.626.734-.748.99a2.17 2.17 0 000 1.872c.122.256.331.5.748.99.166.195.25.292.319.396.16.239.27.507.326.788.025.123.035.25.055.506.051.641.077.962.171 1.229a2.17 2.17 0 001.324 1.324c.267.094.588.12 1.23.17.254.021.382.031.505.056.281.055.55.166.788.326.104.07.201.153.396.319.49.417.734.626.99.748a2.17 2.17 0 001.872 0c.256-.122.5-.331.99-.748.195-.166.292-.25.396-.319.239-.16.507-.27.788-.326.123-.025.25-.035.506-.055.641-.051.962-.077 1.229-.171a2.17 2.17 0 001.324-1.324c.094-.267.12-.588.17-1.23.021-.254.031-.382.056-.505a2.17 2.17 0 01.326-.788c.07-.104.153-.201.319-.396.417-.49.626-.734.748-.99a2.17 2.17 0 000-1.872c-.122-.256-.331-.5-.748-.99-.166-.195-.25-.292-.319-.396a2.17 2.17 0 01-.326-.788c-.025-.123-.035-.25-.055-.506-.051-.641-.077-.962-.171-1.229a2.17 2.17 0 00-1.324-1.324c-.267-.094-.588-.12-1.23-.17-.254-.021-.382-.031-.505-.056a2.17 2.17 0 01-.788-.326c-.104-.07-.201-.153-.396-.319-.49-.417-.734-.626-.99-.748a2.17 2.17 0 00-1.872 0c-.256.122-.5.331-.99.748zm5.425 5.33a.651.651 0 00-.921-.92l-3.88 3.88-1.276-1.276a.651.651 0 00-.92.92l1.735 1.737a.651.651 0 00.921 0l4.34-4.34z"/></svg></svg>