<svg width="108" height="17" viewBox="0 0 108 17" fill="none" xmlns="http://www.w3.org/2000/svg">
<g clip-path="url(#clip0_77_13)">
<path d="M4.50993 4.36005L8.6013 0H4.09138L0 4.36005L8.10901 13.9039L10.3419 11.2245L4.50993 4.36005Z" fill="white"/>
<path d="M13.3687 0H5.34818V1.33603H13.3687V0Z" fill="white"/>
<path d="M8.10809 13.902L9.30289 15.3099L18.4352 4.35637L14.4194 0H12.1331L16.1065 4.30845L8.10809 13.902Z" fill="white"/>
<path d="M98.724 3.5575C97.121 3.5575 96.012 4.75627 95.8641 7.72195H95.7731V3.82452H92.0671V3.93247C92.9141 4.21086 93.153 4.91534 93.153 5.92663V11.2046C93.153 12.25 93.0161 12.9261 92.1581 13.1988V13.3124H97.382V13.1988C96.302 12.9602 95.887 12.3068 95.8811 11.0456V9.23889C95.8811 6.94928 96.831 6.43796 97.7741 6.43796C98.178 6.43796 98.5649 6.56863 98.8201 6.69362L98.9229 6.65385V3.5575H98.718H98.724Z" fill="white"/>
<path d="M90.7217 11.2052V7.14299C90.7217 4.78521 89.5966 3.56372 87.1007 3.56372C86.0837 3.56372 84.435 3.85915 83.5084 4.15458V7.81908H83.6221C84.4578 5.58061 85.6916 4.02391 86.8286 4.02391C87.6756 4.02391 87.9936 4.67159 87.9936 5.5863V8.12019H87.2827C84.2304 8.12019 83.0139 9.64281 83.0139 11.2848C83.0139 12.5005 83.9007 13.5914 85.4867 13.5914C86.8677 13.5914 87.7887 12.7335 88.0447 11.8074C88.1076 12.5403 88.4707 13.1312 88.7326 13.3129H91.8017V13.1994C90.9207 12.9266 90.7277 12.2562 90.7277 11.2052H90.7217ZM87.9936 11.4495C87.8117 11.904 87.4196 12.1824 86.9077 12.1824C86.0207 12.1824 85.5607 11.4438 85.5607 10.5064C85.5607 9.17693 86.3788 8.54062 87.5668 8.54062H87.9996V11.4495H87.9936Z" fill="white"/>
<path d="M62.9463 9.97177C62.4858 12.625 60.8089 13.5851 59.2002 13.5851C57.0628 13.5851 55.1074 11.9262 55.1074 8.75593C55.1074 5.58576 56.7843 3.5575 59.3139 3.5575C61.2864 3.5575 62.9292 4.779 62.9292 7.57992C62.9292 7.62537 62.9292 7.6765 62.9292 7.72195H57.2504C57.4323 10.0797 58.6544 11.3921 60.4394 11.3921C61.4342 11.3921 62.3437 10.949 62.8212 9.93768L62.952 9.97177H62.9463ZM57.2276 7.05723V7.26176H60.4167C60.4167 7.19927 60.4167 7.13677 60.4167 7.07995C60.4167 4.83013 59.8027 4.07451 58.9046 4.07451C57.87 4.07451 57.2276 5.21647 57.2276 7.06291" fill="white"/>
<path d="M42.6929 11.2055V3.83105H39.0605V3.939C39.8507 4.22307 39.9644 4.92188 39.9644 5.91612V11.3759C39.7427 11.8191 39.3163 12.1316 38.7649 12.1486C37.935 12.1486 37.4347 11.5975 37.4347 10.5237V3.83105H33.6148V3.939C34.4618 4.21739 34.7006 4.92189 34.7006 5.93316V10.5976C34.7006 12.6997 35.7522 13.586 37.3552 13.586C38.6455 13.586 39.5892 12.7565 39.953 11.7055V13.3076H43.773V13.194C42.926 12.9156 42.6873 12.2111 42.6873 11.1998" fill="white"/>
<path d="M50.4967 3.5575C49.337 3.5575 48.3196 4.16541 47.8591 5.19941V3.8302H44.0391V3.93815C44.8861 4.22222 45.1249 4.92103 45.1249 5.938V14.8975C45.1249 15.9088 44.8861 16.6133 44.0391 16.8917V16.9996H49.3541V16.8917C48.2798 16.5906 47.8534 15.9997 47.8534 14.7328V12.9772C48.24 13.409 48.8482 13.5908 49.4394 13.5908C52.0031 13.5908 53.9017 11.358 53.9017 8.09693C53.9017 5.35281 52.4635 3.56318 50.491 3.56318M48.996 13.1136C48.4048 13.1136 48.0353 12.8011 47.8534 12.5398V5.57439C48.0581 5.2051 48.5015 4.83012 48.996 4.83012C50.2522 4.83012 50.9514 6.43228 50.9514 8.97752C50.9514 11.5228 50.1215 13.1079 48.996 13.1079" fill="white"/>
<path d="M81.5639 11.8133C81.0921 11.0747 78.4204 6.90454 78.4204 6.90454C80.1484 6.54661 81.291 5.13195 81.291 3.68319C81.291 1.74583 80.1086 0.405029 76.5673 0.405029H70.9282V0.512976C71.906 0.762957 72.2015 1.55267 72.2015 2.67759V11.0349C72.2015 12.1598 71.9116 12.9495 70.9282 13.1995V13.3132H76.7208V13.1995C75.6464 12.9666 75.2257 12.3132 75.22 11.069V7.27383H75.5554L79.2275 13.3132H83.0134V13.1995C82.4677 12.9779 82.03 12.5518 81.5582 11.8133M75.7316 6.87045H75.22V0.848178H75.8624C77.6132 0.848178 78.1475 2.07535 78.1475 3.73432C78.1475 5.77394 77.4086 6.86476 75.7316 6.86476" fill="white"/>
<path d="M107.32 9.97177C106.86 12.625 105.183 13.5851 103.575 13.5851C101.437 13.5851 99.4816 11.9262 99.4816 8.75593C99.4816 5.58576 101.159 3.5575 103.688 3.5575C105.661 3.5575 107.303 4.779 107.303 7.57992C107.303 7.62537 107.303 7.6765 107.303 7.72195H101.625C101.807 10.0797 103.029 11.3921 104.814 11.3921C105.808 11.3921 106.718 10.949 107.195 9.93768L107.326 9.97177H107.32ZM101.602 7.05723V7.26176H104.791C104.791 7.19927 104.791 7.13677 104.791 7.07995C104.791 4.83013 104.177 4.07451 103.279 4.07451C102.244 4.07451 101.602 5.21647 101.602 7.06291" fill="white"/>
<path d="M28.7999 0.0979004C25.4972 0.0979004 24.0988 1.9898 24.0988 4.02374C24.0988 5.69407 25.0539 7.01215 26.8899 7.84163L29.5161 9.03469C30.7667 9.58583 31.1874 10.3642 31.1874 11.2448C31.1874 12.5515 30.3461 13.2673 28.9931 13.2673C27.2026 13.2673 25.7701 11.4778 24.6218 8.60297H24.5138V13.1594C25.5086 13.4265 27.2821 13.6708 28.6407 13.6708C31.3636 13.6708 33.0974 11.8925 33.0974 9.31876C33.0974 7.68823 32.3811 6.58604 30.4541 5.70543L27.68 4.40439C26.4125 3.81921 25.9747 3.20562 25.9747 2.34205C25.9747 1.21713 26.7819 0.478553 28.0154 0.478553C29.3399 0.478553 30.6928 1.64324 32.1537 4.38735H32.2617V0.478553C31.4602 0.308112 29.9993 0.0979004 28.7999 0.0979004Z" fill="white"/>
<path d="M70.4035 3.5575C68.8005 3.5575 67.692 4.75627 67.5442 7.72195H67.4533V3.82452H63.747V3.93247C64.594 4.21086 64.8328 4.91534 64.8328 5.92663V11.2046C64.8328 12.25 64.6963 12.9261 63.838 13.1988V13.3124H69.0619V13.1988C67.9819 12.9602 67.5669 12.3068 67.5612 11.0456V9.23889C67.5612 6.94928 68.5105 6.43796 69.4542 6.43796C69.8578 6.43796 70.2443 6.56863 70.5001 6.69362L70.6025 6.65385V3.5575H70.3978H70.4035Z" fill="white"/>
</g>
<defs>
<clipPath id="clip0_77_13">
<rect width="108" height="17" fill="white"/>
</clipPath>
</defs>
</svg>
