<svg width="128" height="129" viewBox="0 0 128 129" fill="none" xmlns="http://www.w3.org/2000/svg">
<path d="M61.8013 0.114151C57.6667 0.253832 53.6325 0.782455 49.7329 1.67052V54.5803C49.7329 55.3623 49.3164 56.086 48.6387 56.4766L12.4859 77.3875C6.91191 59.4373 13.327 34.5594 33.2864 20.5196V46.33L28.9087 48.833V29.965C18.4838 40.6789 13.5125 55.6477 15.5071 70.5592L45.355 53.3152V2.83373C6.63136 14.6121 -11.2912 58.9213 7.51338 94.181L61.8017 62.817L61.8013 0.114151Z" fill="white"/>
<path d="M9.72484 97.9633C11.9128 101.475 14.3873 104.709 17.1063 107.644L62.8959 81.1887C63.5727 80.7973 64.4078 80.7973 65.085 81.1887L101.259 102.064C88.5104 115.869 63.7726 122.749 41.6433 112.471L63.9808 99.5668L68.335 102.109L52.0062 111.543C66.4913 115.221 81.9311 112.044 93.839 102.858L63.9905 85.6144L20.3027 110.855C49.8578 138.524 97.1662 131.901 118.278 97.9751L63.9909 66.6103L9.72484 97.9633Z" fill="white"/>
<path d="M120.446 94.1676C122.392 90.5161 123.951 86.755 125.134 82.9316L79.3425 56.4772C78.6661 56.0866 78.2488 55.3629 78.2488 54.5805L78.2282 12.7943C96.5502 16.939 114.872 34.938 117.044 59.2546L94.7065 46.3486L94.7288 41.3043L111.058 50.7383C106.998 36.3463 96.5287 24.554 82.6258 18.8271V53.3158L126.315 78.5559C135.482 39.1086 106.098 1.42237 66.1795 0.0887756L66.1791 62.8163L120.446 94.1676Z" fill="white"/>
</svg>
