<svg width="52" height="53" viewBox="0 0 52 53" fill="none" xmlns="http://www.w3.org/2000/svg">
<rect y="0.5" width="52" height="52" rx="10" fill="#10302B"/>
<rect x="0.5" y="1" width="51" height="51" rx="9.5" stroke="white" stroke-opacity="0.03"/>
<path d="M33.1835 22.3052L30.2188 19.3376C28.1921 17.3089 27.1788 16.2946 26.0904 16.5347C25.0021 16.7748 24.5086 18.1216 23.5217 20.8151L22.8537 22.6381C22.5906 23.3562 22.4591 23.7152 22.2224 23.9929C22.1162 24.1175 21.9954 24.2289 21.8625 24.3245C21.5664 24.5377 21.1981 24.6392 20.4614 24.8423C18.8011 25.3 17.9709 25.5289 17.658 26.0721C17.5228 26.3069 17.4524 26.5735 17.4541 26.8446C17.4581 27.4715 18.067 28.081 19.2848 29.3L20.6993 30.7163L16.2234 35.1964C15.9255 35.4946 15.9255 35.9782 16.2234 36.2764C16.5214 36.5746 17.0044 36.5746 17.3024 36.2764L21.7784 31.7961L23.2444 33.2635C24.4699 34.4902 25.0827 35.1036 25.7134 35.1045C25.9792 35.1049 26.2404 35.0358 26.4713 34.9041C27.0192 34.5914 27.2493 33.7551 27.7095 32.0825C27.9119 31.3472 28.013 30.9795 28.2254 30.6835C28.3184 30.554 28.4262 30.4358 28.5468 30.3314C28.8221 30.093 29.1788 29.959 29.8922 29.691L31.7362 28.9981C34.4 27.9973 35.7319 27.4969 35.9667 26.4115C36.2014 25.326 35.1954 24.3191 33.1835 22.3052Z" fill="white"/>
</svg>
