<svg width="20" height="21" viewBox="0 0 20 21" fill="none" xmlns="http://www.w3.org/2000/svg">
<path d="M17.5 10.5C17.5 14.6421 14.1421 18 10 18C9.00238 18 8.05025 17.8052 7.17958 17.4516C7.01294 17.3839 6.92962 17.3501 6.86227 17.335C6.79638 17.3202 6.74763 17.3148 6.68011 17.3148C6.61109 17.3148 6.53591 17.3273 6.38554 17.3524L3.42063 17.8466C3.11015 17.8983 2.95491 17.9242 2.84265 17.876C2.7444 17.8339 2.66611 17.7556 2.62397 17.6573C2.57582 17.5451 2.60169 17.3898 2.65344 17.0794L3.14759 14.1145C3.17265 13.9641 3.18518 13.8889 3.18517 13.8199C3.18516 13.7524 3.17976 13.7036 3.165 13.6377C3.1499 13.5704 3.11606 13.4871 3.04839 13.3204C2.69478 12.4497 2.5 11.4976 2.5 10.5C2.5 6.35786 5.85786 3 10 3C14.1421 3 17.5 6.35786 17.5 10.5Z" stroke="white" stroke-width="2" stroke-linecap="round" stroke-linejoin="round"/>
</svg>
