<svg width="20" height="21" viewBox="0 0 20 21" fill="none" xmlns="http://www.w3.org/2000/svg">
<path d="M17.3261 11.0062C17.5296 10.8318 17.6313 10.7446 17.6686 10.6409C17.7013 10.5498 17.7013 10.4502 17.6686 10.3591C17.6313 10.2554 17.5296 10.1682 17.3261 9.99383L10.2672 3.94331C9.917 3.64315 9.74191 3.49306 9.59367 3.48939C9.46483 3.48619 9.34177 3.54279 9.26035 3.64269C9.16667 3.75764 9.16667 3.98825 9.16667 4.44948V8.02886C7.38777 8.34007 5.75966 9.24146 4.54976 10.5949C3.23069 12.0704 2.50103 13.98 2.5 15.9591V16.4691C3.37445 15.4157 4.46626 14.5638 5.70063 13.9716C6.78891 13.4495 7.96535 13.1403 9.16667 13.0588V16.5505C9.16667 17.0117 9.16667 17.2424 9.26035 17.3573C9.34177 17.4572 9.46483 17.5138 9.59367 17.5106C9.74191 17.5069 9.917 17.3569 10.2672 17.0567L17.3261 11.0062Z" stroke="white" stroke-width="2" stroke-linecap="round" stroke-linejoin="round"/>
</svg>
