<svg width="25" height="22" viewBox="0 0 25 22" fill="none" xmlns="http://www.w3.org/2000/svg">
<g clip-path="url(#clip0_37_129)">
<path d="M24.8713 17.2826L20.7443 21.5944C20.6546 21.6881 20.546 21.7627 20.4254 21.8138C20.3048 21.8648 20.1746 21.8911 20.0431 21.8911H0.479116C0.385765 21.8911 0.294448 21.8645 0.216387 21.8146C0.138324 21.7648 0.0769158 21.6938 0.0397069 21.6103C0.00249809 21.527 -0.00889062 21.4348 0.00694015 21.3451C0.0227709 21.2555 0.0651314 21.1724 0.128817 21.1059L4.25894 16.794C4.34842 16.7006 4.45661 16.6261 4.57683 16.5751C4.69708 16.524 4.82678 16.4976 4.95795 16.4974H24.5209C24.6142 16.4974 24.7055 16.524 24.7837 16.5738C24.8616 16.6237 24.923 16.6947 24.9604 16.7781C24.9975 16.8615 25.0089 16.9537 24.9931 17.0433C24.9772 17.1329 24.9349 17.2161 24.8713 17.2826ZM20.7443 8.59978C20.6546 8.50611 20.546 8.43144 20.4254 8.3804C20.3048 8.32938 20.1746 8.30307 20.0431 8.30314H0.479116C0.385765 8.30314 0.294448 8.3297 0.216387 8.37958C0.138324 8.42946 0.0769158 8.50045 0.0397069 8.58384C0.00249809 8.66725 -0.00889062 8.75943 0.00694015 8.84906C0.0227709 8.93866 0.0651314 9.02183 0.128817 9.08834L4.25894 13.4002C4.34842 13.4936 4.45661 13.5681 4.57683 13.6191C4.69708 13.6701 4.82678 13.6966 4.95795 13.6968H24.5209C24.6142 13.6968 24.7055 13.6702 24.7837 13.6204C24.8616 13.5705 24.923 13.4995 24.9604 13.4161C24.9975 13.3327 25.0089 13.2405 24.9931 13.1509C24.9772 13.0613 24.9349 12.9781 24.8713 12.9116L20.7443 8.59978ZM0.479116 5.50258H20.0431C20.1746 5.50262 20.3048 5.47634 20.4254 5.4253C20.546 5.37426 20.6546 5.29958 20.7443 5.20592L24.8713 0.894082C24.9349 0.827592 24.9772 0.744426 24.9931 0.654803C25.0089 0.565179 24.9975 0.473003 24.9604 0.3896C24.923 0.306196 24.8616 0.235198 24.7837 0.185328C24.7055 0.135458 24.6142 0.10889 24.5209 0.108887H4.95795C4.82678 0.109104 4.69708 0.135545 4.57683 0.186572C4.45661 0.237599 4.34842 0.312126 4.25894 0.40554L0.129882 4.71738C0.0662577 4.78379 0.0239158 4.86688 0.00804913 4.95639C-0.00781755 5.04592 0.00348079 5.13802 0.0405584 5.22139C0.0776361 5.30475 0.138881 5.37574 0.216783 5.42569C0.294686 5.47564 0.385856 5.50235 0.479116 5.50258Z" fill="url(#paint0_linear_37_129)"/>
</g>
<defs>
<linearGradient id="paint0_linear_37_129" x1="2.11029" y1="22.4102" x2="22.028" y2="-0.637705" gradientUnits="userSpaceOnUse">
<stop offset="0.08" stop-color="#9945FF"/>
<stop offset="0.3" stop-color="#8752F3"/>
<stop offset="0.5" stop-color="#5497D5"/>
<stop offset="0.6" stop-color="#43B4CA"/>
<stop offset="0.72" stop-color="#28E0B9"/>
<stop offset="0.97" stop-color="#19FB9B"/>
</linearGradient>
<clipPath id="clip0_37_129">
<rect width="25" height="21.7822" fill="white" transform="translate(0 0.108887)"/>
</clipPath>
</defs>
</svg>
