<svg width="17" height="17" viewBox="0 0 17 17" fill="none" xmlns="http://www.w3.org/2000/svg">
<path fill-rule="evenodd" clip-rule="evenodd" d="M6.57392 1.46022C6.3791 1.62624 6.28169 1.70927 6.17765 1.77899C5.93917 1.93883 5.67134 2.04977 5.38968 2.10538C5.26681 2.12964 5.13923 2.13982 4.88407 2.16018C4.24296 2.21135 3.9224 2.23692 3.65497 2.33139C3.03641 2.54987 2.54987 3.03641 2.33139 3.65497C2.23692 3.9224 2.21135 4.24296 2.16018 4.88407C2.13982 5.13923 2.12964 5.26681 2.10538 5.38968C2.04977 5.67134 1.93883 5.93917 1.77899 6.17765C1.70927 6.28169 1.62625 6.3791 1.46022 6.57392C1.04307 7.06344 0.834482 7.30816 0.712178 7.56408C0.429274 8.156 0.429274 8.844 0.712178 9.43592C0.83449 9.69184 1.04307 9.93656 1.46022 10.4261C1.62623 10.6209 1.70927 10.7183 1.77899 10.8223C1.93883 11.0608 2.04977 11.3286 2.10538 11.6103C2.12964 11.7332 2.13982 11.8608 2.16018 12.1159C2.21135 12.757 2.23692 13.0776 2.33139 13.345C2.54987 13.9636 3.03641 14.4502 3.65497 14.6686C3.9224 14.763 4.24296 14.7886 4.88407 14.8398C5.13923 14.8602 5.26681 14.8704 5.38968 14.8946C5.67134 14.9502 5.93917 15.0612 6.17765 15.221C6.28169 15.2907 6.3791 15.3738 6.57392 15.5398C7.06344 15.957 7.30816 16.1655 7.56408 16.2878C8.156 16.5707 8.844 16.5707 9.43592 16.2878C9.69184 16.1655 9.93656 15.957 10.4261 15.5398C10.6209 15.3738 10.7183 15.2907 10.8223 15.221C11.0608 15.0612 11.3286 14.9502 11.6103 14.8946C11.7332 14.8704 11.8608 14.8602 12.1159 14.8398C12.757 14.7886 13.0776 14.763 13.345 14.6686C13.9636 14.4502 14.4502 13.9636 14.6686 13.345C14.763 13.0776 14.7886 12.757 14.8398 12.1159C14.8602 11.8608 14.8704 11.7332 14.8946 11.6103C14.9502 11.3286 15.0612 11.0608 15.221 10.8223C15.2907 10.7183 15.3738 10.6209 15.5398 10.4261C15.957 9.93656 16.1655 9.69184 16.2878 9.43592C16.5707 8.844 16.5707 8.156 16.2878 7.56408C16.1655 7.30816 15.957 7.06344 15.5398 6.57392C15.3738 6.3791 15.2907 6.28169 15.221 6.17765C15.0612 5.93917 14.9502 5.67134 14.8946 5.38968C14.8704 5.26681 14.8602 5.13923 14.8398 4.88407C14.7886 4.24296 14.763 3.9224 14.6686 3.65497C14.4502 3.03641 13.9636 2.54987 13.345 2.33139C13.0776 2.23692 12.757 2.21135 12.1159 2.16018C11.8608 2.13982 11.7332 2.12964 11.6103 2.10538C11.3286 2.04977 11.0608 1.93883 10.8223 1.77899C10.7183 1.70927 10.6209 1.62625 10.4261 1.46022C9.93656 1.04307 9.69184 0.83449 9.43592 0.712178C8.844 0.429274 8.156 0.429274 7.56408 0.712178C7.30816 0.834482 7.06344 1.04307 6.57392 1.46022ZM11.9988 6.79051C12.253 6.53624 12.253 6.124 11.9988 5.86973C11.7446 5.61547 11.3322 5.61547 11.078 5.86973L7.19784 9.74992L5.92197 8.47408C5.66771 8.21984 5.25546 8.21984 5.00119 8.47408C4.74693 8.72832 4.74693 9.14056 5.00119 9.39488L6.73742 11.1311C6.99168 11.3854 7.40392 11.3854 7.65824 11.1311L11.9988 6.79051Z" fill="white"/>
</svg>
